<?xml version="1.0" encoding="utf-8"?>
<!-- Generator: Adobe Illustrator 25.0.0, SVG Export Plug-In . SVG Version: 6.00 Build 0)  -->
<svg version="1.1" id="Layer_1" xmlns="http://www.w3.org/2000/svg" xmlns:xlink="http://www.w3.org/1999/xlink" x="0px" y="0px"
	 viewBox="0 0 450.62 80" style="enable-background:new 0 0 450.62 80;" xml:space="preserve">
<style type="text/css">
	.st0{fill:#FFFFFF;}
</style>
<g>
	<path class="st0" d="M19.76,19.21v30.96c0,5.6,2.95,8.85,8.26,8.85s8.26-3.1,8.26-8.85V19.21h14.45v35.98
		c0,11.94-9.29,18.28-22.71,18.28S5.31,67.13,5.31,55.19V19.21H19.76z"/>
	<path class="st0" d="M57.36,75.68V19.21h14.45v49.84L57.36,75.68z"/>
	<path class="st0" d="M114.57,33.07h-9.58c-7.96,0-13.12,5.16-13.12,12.53c0,7.23,5.01,12.53,13.12,12.53h9.58V72h-10.03
		C87.59,72,77.41,61.82,77.41,45.6s10.17-26.39,27.13-26.39h10.03V33.07z"/>
	<rect x="57.51" y="4.32" class="st0" width="14.16" height="9.29"/>
	<path class="st0" d="M136.54,72.59h-3.24V50.32h3.24V72.59z"/>
	<path class="st0" d="M162.2,72.59h-2.8L144.5,55.33v17.25h-2.95V50.32h2.51l15.19,17.25V50.32h2.95V72.59z"/>
	<path class="st0" d="M183.87,53.12h-7.81v19.46h-3.24V53.12H165v-2.95h18.73v2.95H183.87z"/>
	<path class="st0" d="M199.65,53.12h-9.44v6.78h9.14v2.95h-9.14v6.93h9.73v2.95h-12.98V50.32h12.68V53.12z"/>
	<path class="st0" d="M209.09,50.32c4.57,0,7.37,2.36,7.37,6.19c0,2.65-1.33,4.57-3.69,5.46c2.06,1.33,3.24,3.39,5.01,6.19
		c0.88,1.47,1.47,2.36,3.1,4.42h-3.83l-2.95-4.57c-2.95-4.57-4.28-5.16-5.9-5.16h-1.33v9.73h-3.24V50.32H209.09z M206.58,60.05h2.06
		c3.39,0,4.42-1.77,4.42-3.69c0-2.06-1.33-3.39-4.42-3.39h-2.06V60.05z"/>
	<path class="st0" d="M241.09,55.19c-2.8-1.62-5.16-2.36-7.67-2.36c-5.16,0-8.99,3.69-8.99,8.55c0,5.01,3.69,8.55,8.99,8.55
		c2.51,0,5.31-0.88,7.81-2.51v3.54c-2.21,1.18-4.57,1.92-8.11,1.92c-8.4,0-12.09-6.49-12.09-11.21c0-6.78,5.16-11.8,12.24-11.8
		c2.36,0,4.57,0.59,7.67,1.77L241.09,55.19L241.09,55.19z"/>
	<path class="st0" d="M256.27,50.03c7.37,0,12.09,5.31,12.09,11.5c0,6.05-4.57,11.5-12.09,11.5c-7.37,0-11.94-5.46-11.94-11.5
		C244.33,55.19,249.05,50.03,256.27,50.03z M256.27,69.93c5.01,0,8.7-3.69,8.7-8.55s-3.69-8.55-8.7-8.55s-8.7,3.54-8.7,8.55
		C247.57,66.39,251.26,69.93,256.27,69.93z"/>
	<path class="st0" d="M292.99,72.59h-2.8l-14.89-17.25v17.25h-2.95V50.32h2.51l15.19,17.25V50.32h2.95V72.59z"/>
	<path class="st0" d="M314.66,53.12h-7.81v19.46h-3.24V53.12h-7.81v-2.95h18.73v2.95H314.66z"/>
	<path class="st0" d="M321,72.59h-3.24V50.32H321V72.59z"/>
	<path class="st0" d="M346.66,72.59h-2.8l-14.89-17.25v17.25h-2.95V50.32h2.51l15.19,17.25V50.32h2.95V72.59z"/>
	<path class="st0" d="M364.21,53.12h-9.44v6.78h9.14v2.95h-9.14v6.93h9.73v2.95h-12.98V50.32h12.68L364.21,53.12L364.21,53.12z"/>
	<path class="st0" d="M388.68,72.59h-2.8l-14.89-17.25v17.25h-2.95V50.32h2.51l15.19,17.25V50.32h2.95V72.59z"/>
	<path class="st0" d="M410.36,53.12h-7.81v19.46h-3.24V53.12h-7.81v-2.95h18.73L410.36,53.12L410.36,53.12z"/>
	<path class="st0" d="M429.53,72.59h-3.24l-2.95-6.64h-9.58l-2.8,6.64h-3.24l9.58-22.56h2.21L429.53,72.59z M414.93,63.15h6.93
		l-3.54-8.11L414.93,63.15z"/>
	<path class="st0" d="M435.13,69.79h10.17v2.95h-13.27V50.32h3.24v19.46H435.13z"/>
	<path class="st0" d="M151.88,32.19c0,5.46-3.24,9.14-9.88,9.14c-4.72,0-9.29-2.65-9.29-8.7V18.77h3.24v13.27
		c0,2.51,0.29,3.54,1.33,4.57c1.33,1.33,2.95,1.92,4.87,1.92c2.51,0,4.28-0.74,5.31-1.77c1.18-1.18,1.47-2.8,1.47-4.87V18.91h3.24
		v13.27H151.88z"/>
	<path class="st0" d="M176.5,41.03h-2.8l-14.89-17.25v17.25h-2.95V18.62h2.51l15.19,17.4v-17.4h2.95V41.03z"/>
	<path class="st0" d="M184.17,41.03h-3.24V18.62h3.24V41.03z"/>
	<path class="st0" d="M196.41,41.18h-0.59l-9.73-22.56h3.24l6.78,15.78l6.64-15.78h3.24L196.41,41.18z"/>
	<path class="st0" d="M220,21.42h-9.44v6.78h9.14v2.95h-9.14v6.93h9.73v2.95h-12.98V18.62H220L220,21.42L220,21.42z"/>
	<path class="st0" d="M229.44,18.62c4.57,0,7.37,2.36,7.37,6.34c0,2.65-1.33,4.57-3.69,5.46c2.06,1.33,3.24,3.39,5.01,6.19
		c0.88,1.47,1.47,2.36,3.1,4.42h-3.83l-2.95-4.57c-2.95-4.57-4.28-5.16-5.9-5.16h-1.33v9.73h-3.39V18.62H229.44z M226.93,28.35h2.06
		c3.39,0,4.42-1.77,4.42-3.69c0-2.06-1.33-3.39-4.42-3.39h-2.06V28.35z"/>
	<path class="st0" d="M253.03,23.49c-1.92-1.77-3.69-2.36-5.31-2.36c-2.06,0-3.54,1.03-3.54,2.65c0,4.28,9.73,4.28,9.73,11.35
		c0,3.54-2.65,6.05-6.34,6.05c-2.36,0-4.42-0.59-6.34-2.06v-4.13c1.62,2.06,3.69,3.24,5.9,3.24c2.51,0,3.69-1.62,3.69-2.8
		c0-4.57-9.73-5.16-9.73-11.35c0-3.69,2.65-6.05,6.78-6.05c1.77,0,3.39,0.59,5.01,1.62v3.83C252.88,23.49,253.03,23.49,253.03,23.49
		z"/>
	<path class="st0" d="M260.7,41.03h-3.24V18.62h3.24V41.03z"/>
	<path class="st0" d="M264.68,18.62h8.7c8.26,0,11.94,5.9,11.94,11.21c0,5.75-4.57,11.21-11.94,11.21h-8.7V18.62z M267.92,38.08
		h5.16c7.23,0,8.99-5.6,8.99-8.26c0-4.57-2.8-8.26-9.14-8.26h-5.01V38.08L267.92,38.08z"/>
	<path class="st0" d="M306.26,41.03h-3.24l-2.95-6.64h-9.58l-2.8,6.64h-3.24l9.58-22.56h2.21L306.26,41.03z M291.66,31.45h6.93
		l-3.69-8.11L291.66,31.45z"/>
	<path class="st0" d="M308.32,18.62h8.7c8.26,0,11.94,5.9,11.94,11.21c0,5.75-4.57,11.21-11.94,11.21h-8.7V18.62z M311.57,38.08
		h5.16c7.23,0,8.99-5.6,8.99-8.26c0-4.57-2.8-8.26-9.14-8.26h-5.01V38.08L311.57,38.08z"/>
</g>
</svg>
