<svg width="74" height="65" viewBox="0 0 74 65" fill="none" xmlns="http://www.w3.org/2000/svg">
<path d="M55.9647 19.4927C55.9647 24.0176 54.9304 27.8098 52.9337 31.8607L48.4663 42.1888C46.8144 45.5358 45.4497 49.2419 45.4497 52.9623V61.4662C45.4497 62.5723 44.5448 63.4772 43.4387 63.4772C42.1602 63.4772 41.4133 63.6209 40.2928 63.0894C39.158 62.5579 38.1381 61.7678 37.3337 60.7767C34.9061 57.7888 33.1536 54.2982 32.2343 50.5634L31.4729 47.4894C31.3293 46.8861 30.9845 46.3689 30.5105 46.0098C30.0508 45.6507 29.4619 45.4352 28.8442 45.4352C27.6088 45.4352 26.5171 46.2828 26.2298 47.4894L25.4685 50.5634C25.0088 52.4308 24.3481 54.2408 23.4862 55.9502C22.6387 57.6596 21.5901 59.2828 20.3691 60.7767C19.5646 61.7678 18.5448 62.5579 17.41 63.0894C16.2751 63.6352 15.0254 63.9225 13.747 63.9225C12.6409 63.9225 11.7359 63.0176 11.7359 61.9115V52.9336C11.7359 49.2131 10.874 45.5358 9.23647 42.1888L4.10829 31.8032C3.10277 29.7778 2.34144 27.6518 1.83868 25.454C1.32155 23.2706 1.06299 21.0154 1.06299 18.7601C1.06299 14.6375 2.72929 10.917 5.42984 8.21646C8.13039 5.51591 11.8508 3.84961 15.9735 3.84961C18.5879 3.84961 21.1591 4.53911 23.4144 5.84629L28.8873 9.00652L30.7691 8.83414L31.0276 7.74243L34.2453 5.84629C35.3801 5.18552 36.5867 4.69712 37.8365 4.36674C38.2387 4.26618 38.6409 4.16563 39.0431 4.09381C39.0431 4.09381 40.7956 4.23745 41.6862 4.23745C45.8088 4.23745 48.8829 6.10486 51.5834 8.80541C54.3127 11.5203 55.9647 15.3844 55.9647 19.4927Z" fill="#F5F8F9"/>
<path d="M56.6398 18.7743C56.6398 23.2417 55.6055 27.7378 53.5945 31.8174L48.4663 42.203C46.8287 45.5356 45.9668 49.2129 45.9668 52.9477V61.9256C45.9668 62.3135 45.8519 62.6726 45.6652 62.9743C45.3061 63.5489 44.674 63.9367 43.9558 63.9367C42.663 63.9367 41.4132 63.6494 40.2784 63.1035C40.5226 62.7732 40.6519 62.3709 40.6519 61.9256V58.277C40.6519 57.3721 40.4508 56.4671 40.1061 55.6339C39.9337 55.2317 39.7757 54.8151 39.632 54.3842C39 52.5024 38.684 50.5201 38.684 48.5234C38.684 42.1312 41.9447 36.5002 46.9005 33.1964C47.6044 32.7367 48.1646 32.0903 48.5237 31.329C50.3337 27.4505 51.3392 23.0693 51.3248 18.7743C51.3248 14.6516 49.6585 10.9312 46.958 8.23062C44.8608 6.13338 42.1315 4.65382 39.0862 4.10797C39.9624 3.94996 40.8387 3.86377 41.7293 3.86377C45.8519 3.86377 49.5724 5.53007 52.2729 8.23062C54.9735 10.9312 56.6398 14.6516 56.6398 18.7743Z" fill="#E8EDF2"/>
<path d="M13.8619 7.98649C10.874 9.5235 9.50938 10.8881 7.98673 13.876C7.88618 14.0915 7.58452 14.0915 7.4696 13.876C5.93259 10.8881 4.56794 9.5235 1.59446 7.98649C1.37899 7.88593 1.37899 7.58427 1.59446 7.46936C4.56794 5.94671 5.93259 4.58206 7.4696 1.59422C7.57015 1.37875 7.87181 1.37875 7.98673 1.59422C9.52374 4.58206 10.8884 5.94671 13.8619 7.46936C14.0773 7.58427 14.0773 7.88593 13.8619 7.98649Z" fill="#FFDE80"/>
<path d="M50.6928 21.5326C48.3083 22.7679 47.1878 23.8884 45.9525 26.2729C45.8376 26.474 45.5503 26.474 45.4353 26.2729C44.2 23.8884 43.0795 22.7679 40.695 21.5326C40.4939 21.4176 40.4939 21.1303 40.695 21.0154C43.0795 19.7801 44.2 18.6596 45.4353 16.2751C45.5503 16.074 45.8376 16.074 45.9525 16.2751C47.1878 18.6596 48.3083 19.7801 50.6928 21.0154C50.9083 21.1303 50.9083 21.432 50.6928 21.5326Z" fill="#FFDE80"/>
<path d="M34.705 32.2483C33.2254 33.0671 32.421 33.8715 31.6022 35.3511C31.4442 35.6527 31.0133 35.6527 30.8553 35.3511C30.0365 33.8715 29.232 33.0671 27.7525 32.2483C27.4508 32.0903 27.4508 31.6594 27.7525 31.5014C29.232 30.6826 30.0365 29.8782 30.8553 28.3986C31.0133 28.0969 31.4442 28.0969 31.6022 28.3986C32.421 29.8782 33.2254 30.6826 34.705 31.5014C34.9923 31.6594 34.9923 32.076 34.705 32.2483Z" fill="#FFDE80"/>
<path d="M41.7006 48.5237C41.7006 50.2331 41.9735 51.885 42.4906 53.422C45.1337 58.8231 50.2188 63.1038 57.0133 63.1038C65.5171 63.1038 71.7227 57.0275 71.7227 48.5237C71.7227 41.7292 67.4276 37.0751 62.0122 33.9148C60.4751 33.3977 58.8232 33.1248 57.0995 33.1248C48.5956 33.1104 41.7006 40.0054 41.7006 48.5237Z" fill="#8DB9FF"/>
<path d="M72.5271 48.5239C72.5271 57.0277 65.6321 63.9371 57.1138 63.9371C50.3194 63.9371 44.5448 59.5416 42.505 53.4366C44.042 53.9537 45.694 54.241 47.4177 54.241C55.9216 54.241 62.831 47.346 62.831 38.8277C62.831 37.1184 62.558 35.4664 62.0266 33.915C68.1172 35.9548 72.5271 41.7294 72.5271 48.5239Z" fill="#70ABF2"/>
<path d="M49.1414 45.6941H53.9679C54.1547 45.6941 54.2983 45.5505 54.2983 45.3637V40.5516C54.2983 40.3648 54.442 40.2212 54.6287 40.2212H59.6132C59.8 40.2212 59.9436 40.3648 59.9436 40.5516V45.3781C59.9436 45.5648 60.0873 45.7085 60.274 45.7085H61.2077L64.8132 45.9527C65 45.9527 65.1436 46.0963 65.1436 46.2831L65.2442 50.7936C65.2442 50.9803 65.1005 51.124 64.9138 51.124L60.0298 51.1096C59.8431 51.1096 59.6994 51.2532 59.6994 51.44L59.8574 56.0654C59.8574 56.2521 59.7138 56.3958 59.5271 56.3958L54.916 56.5969C54.7293 56.5969 54.5856 56.4532 54.5856 56.2665L54.2983 52.6179V51.6842C54.2983 51.4974 54.1547 51.3538 53.9679 51.3538H49.1414C48.9547 51.3538 48.811 51.2101 48.811 51.0234V46.0389C48.811 45.8521 48.969 45.6941 49.1414 45.6941Z" fill="#F5F8F9"/>
<path d="M65.4021 46.0243V51.0088C65.4021 51.1956 65.2585 51.3392 65.0717 51.3392H60.2452C60.0585 51.3392 59.9148 51.4829 59.9148 51.6696V56.4961C59.9148 56.6829 59.7712 56.8265 59.5844 56.8265H54.5999C54.4132 56.8265 54.2695 56.6829 54.2695 56.4961V52.6177C57.243 51.1237 59.685 48.6961 61.1646 45.7226H65.043C65.2585 45.6939 65.4021 45.8519 65.4021 46.0243Z" fill="#E8EDF2"/>
<path d="M29.0453 9.95454C28.6718 9.95454 28.3127 9.7678 28.1116 9.40869C27.8099 8.89156 27.9967 8.23079 28.4994 7.94349L33.7282 4.92692C33.7569 4.91256 33.7856 4.89819 33.8287 4.86946C34.4751 4.48162 36.4431 3.30372 40.1635 2.85841C40.7525 2.78659 41.284 3.21753 41.3558 3.80648C41.4276 4.39543 40.9967 4.92692 40.4077 4.99874C37.1469 5.38659 35.4807 6.37775 34.9204 6.70814C34.863 6.73687 34.8199 6.76559 34.7911 6.77996L29.5624 9.79653C29.4188 9.91145 29.232 9.95454 29.0453 9.95454Z" fill="black"/>
<path d="M52.6177 34.8483C52.4597 34.8483 52.3016 34.8196 52.1436 34.7334C51.6121 34.4748 51.3967 33.8284 51.6552 33.2969L52.6177 31.3433C54.5425 27.4649 55.5481 23.1124 55.5481 18.7743C55.5481 15.0825 54.1116 11.6063 51.4972 8.99194C48.8829 6.37758 45.4066 4.94111 41.7149 4.94111C41.2552 4.94111 40.853 4.95548 40.4795 4.99857C39.8906 5.05603 39.3591 4.62509 39.3016 4.03614C39.2442 3.44719 39.6751 2.9157 40.2641 2.85824C40.695 2.81515 41.169 2.80078 41.7005 2.80078C45.9668 2.80078 49.9889 4.46708 53.0055 7.48365C56.0221 10.5002 57.6884 14.5223 57.6884 18.7886C57.6884 23.4571 56.5967 28.14 54.5282 32.3058L53.5657 34.2593C53.3934 34.6328 53.0199 34.8483 52.6177 34.8483Z" fill="black"/>
<path d="M43.9558 64.9999C42.5337 64.9999 41.0972 64.6695 39.8188 64.0662C38.5403 63.4628 37.3911 62.5579 36.4862 61.4662C35.3657 60.1015 34.3458 58.5645 33.4696 56.8982C33.1967 56.3667 33.3978 55.7203 33.9149 55.4474C34.4464 55.1744 35.0928 55.3755 35.3657 55.8927C36.1701 57.4297 37.1182 58.8518 38.1525 60.1015C38.842 60.9634 39.7469 61.6529 40.7381 62.1269C41.7436 62.601 42.8353 62.8595 43.9414 62.8595C44.4585 62.8595 44.8751 62.4429 44.8751 61.9258V59.3976C44.8751 58.8087 45.3635 58.3203 45.9525 58.3203C46.5414 58.3203 47.0298 58.8087 47.0298 59.3976V61.9258C47.0442 63.6208 45.6652 64.9999 43.9558 64.9999Z" fill="black"/>
<path d="M4.09392 32.823C3.69171 32.823 3.31823 32.6076 3.13149 32.2197C2.1116 30.1512 1.32155 27.9534 0.80442 25.7126C0.272928 23.4573 0 21.1302 0 18.7744C0 15.2838 1.10608 11.9656 3.21768 9.16449C3.5768 8.69045 4.25193 8.5899 4.72597 8.94902C5.2 9.30813 5.30055 9.98327 4.94144 10.4573C3.11713 12.8849 2.1547 15.7579 2.1547 18.7744C2.1547 20.9579 2.3989 23.1269 2.90166 25.2242C3.39006 27.3214 4.10829 29.3468 5.05635 31.2717C5.31492 31.8032 5.09945 32.4496 4.56796 32.7081C4.40994 32.7943 4.25193 32.823 4.09392 32.823Z" fill="black"/>
<path d="M13.747 64.9996C12.0376 64.9996 10.6586 63.6206 10.6586 61.9112V52.9333C10.6586 49.3852 9.83982 45.8371 8.27407 42.6626L2.94479 31.846C2.68623 31.3145 2.9017 30.6681 3.43319 30.4095C3.96468 30.151 4.61109 30.3664 4.86966 30.8979L10.1989 41.7145C11.9083 45.1764 12.8133 49.0548 12.8133 52.9333V61.9112C12.8133 62.4283 13.2299 62.8449 13.747 62.8449C14.8674 62.8449 15.9592 62.6007 16.936 62.1266H16.9503C17.9415 61.667 18.8034 60.9775 19.536 60.1012C20.6851 58.6935 21.6907 57.1421 22.5238 55.4758C23.3569 53.8095 23.989 52.0714 24.4199 50.3189L25.1813 47.2449C25.5978 45.5498 27.1061 44.3719 28.8442 44.3719C29.6774 44.3719 30.5105 44.6592 31.1713 45.1764C31.8177 45.6791 32.2918 46.4117 32.5072 47.2305V47.2449L33.2686 50.3189C33.2829 50.3764 33.7139 51.9996 35.4089 55.9786C35.6387 56.5244 35.3945 57.1565 34.8487 57.3863C34.3028 57.6161 33.6708 57.3719 33.4409 56.8261C31.7459 52.8614 31.2719 51.1521 31.1857 50.8504L30.4244 47.7764C30.3238 47.4172 30.1227 47.1012 29.8354 46.8858C29.5481 46.6559 29.189 46.541 28.8299 46.541C28.0829 46.541 27.4365 47.0438 27.2641 47.7764L26.5028 50.8504C26.0288 52.7609 25.3393 54.6427 24.4343 56.4526C23.5293 58.2626 22.4376 59.9432 21.1879 61.4802C20.2542 62.615 19.1337 63.4769 17.8553 64.0802C16.6056 64.6692 15.1835 64.9996 13.747 64.9996Z" fill="black"/>
<path d="M35.294 13.7754C35.1072 13.7754 34.9205 13.7323 34.7625 13.6317L22.8973 6.79415C20.7857 5.58752 18.4012 4.94111 15.9879 4.94111C14.2354 4.94111 12.526 5.2715 10.9028 5.91791C10.357 6.13338 9.72492 5.87481 9.50945 5.31459C9.29398 4.76874 9.55255 4.13669 10.1128 3.92122C11.9802 3.17426 13.9625 2.80078 16.0023 2.80078C18.789 2.80078 21.547 3.54774 23.9746 4.94111L35.8398 11.7787C36.357 12.0803 36.5293 12.7411 36.2421 13.2439C36.0266 13.5886 35.6675 13.7754 35.294 13.7754Z" fill="black"/>
<path d="M57.1138 64.9998C48.0497 64.9998 40.6807 57.6308 40.6807 48.5667C40.6807 39.5026 48.0497 32.1335 57.1138 32.1335C66.1779 32.1335 73.547 39.5026 73.547 48.5667C73.547 52.5744 72.0961 56.4242 69.4387 59.4264C68.9934 59.9866 67.6718 61.4374 64.9425 63.0175C64.9282 63.0175 64.9282 63.0319 64.9138 63.0319C62.558 64.3247 59.8575 64.9998 57.1138 64.9998ZM57.1138 34.2882C49.242 34.2882 42.8354 40.6949 42.8354 48.5667C42.8354 56.4385 49.242 62.8452 57.1138 62.8452C59.484 62.8452 61.8254 62.2562 63.8796 61.1501C66.3646 59.7137 67.4707 58.4496 67.758 58.0905L67.7867 58.0474C67.7867 58.033 67.8011 58.033 67.8011 58.0186C70.1138 55.4043 71.3779 52.0429 71.3779 48.5667C71.3923 40.6949 64.9856 34.2882 57.1138 34.2882Z" fill="black"/>
<path d="M59.9149 57.9181H54.2984C53.7094 57.9181 53.221 57.4297 53.221 56.8408V52.4596H48.8398C48.2508 52.4596 47.7625 51.9712 47.7625 51.3822V45.7656C47.7625 45.1767 48.2508 44.6883 48.8398 44.6883H53.221V40.3071C53.221 39.7181 53.7094 39.2297 54.2984 39.2297H59.9149C60.5039 39.2297 60.9923 39.7181 60.9923 40.3071V44.6883H65.3735C65.9625 44.6883 66.4508 45.1767 66.4508 45.7656V51.3822C66.4508 51.9712 65.9625 52.4596 65.3735 52.4596H60.9923V56.8408C60.9923 57.4297 60.5039 57.9181 59.9149 57.9181ZM55.3757 55.7634H58.8376V51.3822C58.8376 50.7933 59.326 50.3049 59.9149 50.3049H64.2962V46.843H59.9149C59.326 46.843 58.8376 46.3546 58.8376 45.7656V41.3844H55.3757V45.7656C55.3757 46.3546 54.8873 46.843 54.2984 46.843H49.9171V50.3049H54.2984C54.8873 50.3049 55.3757 50.7933 55.3757 51.3822V55.7634Z" fill="black"/>
<path d="M7.72818 15.4564C7.3116 15.4564 6.93812 15.2265 6.76575 14.853C5.14254 11.5492 3.93591 10.3425 0.603315 8.69061C0.229834 8.51823 0 8.13039 0 7.72818C0 7.32597 0.229834 6.93812 0.603315 6.76575C3.92155 5.12818 5.12818 3.92155 6.76575 0.603315C6.95249 0.229834 7.32597 0 7.72818 0C8.14475 0 8.51823 0.229834 8.69061 0.603315C10.3138 3.92155 11.5204 5.12818 14.853 6.76575C15.2265 6.95249 15.4564 7.32597 15.4564 7.72818C15.4564 8.13039 15.2265 8.51823 14.853 8.69061C11.5348 10.3138 10.3282 11.5204 8.69061 14.853C8.51823 15.2265 8.14475 15.4564 7.72818 15.4564ZM3.34696 7.72818C5.31492 8.90608 6.56464 10.1558 7.72818 12.1094C8.89171 10.1558 10.1558 8.90608 12.1094 7.72818C10.1558 6.55028 8.90608 5.30055 7.72818 3.36133C6.55028 5.31492 5.30055 6.56464 3.34696 7.72818Z" fill="black"/>
<path d="M45.7083 27.867C45.2917 27.867 44.9182 27.6372 44.7458 27.2637C43.4099 24.5631 42.4331 23.5863 39.7326 22.2504C39.3591 22.0637 39.1293 21.6902 39.1293 21.288C39.1293 20.8714 39.3591 20.4979 39.7326 20.3256C42.4188 19.0184 43.3956 18.0272 44.7458 15.3123C44.9326 14.9388 45.3061 14.709 45.7083 14.709C46.1249 14.709 46.4983 14.9388 46.6707 15.3123C47.9923 17.9985 48.9691 18.9896 51.684 20.3256C52.0574 20.5123 52.2873 20.8858 52.2873 21.288C52.2873 21.7046 52.0574 22.078 51.684 22.2504C48.9978 23.5576 48.021 24.5488 46.6707 27.2637C46.4983 27.6372 46.1249 27.867 45.7083 27.867ZM42.4475 21.288C43.8552 22.1786 44.8177 23.141 45.7083 24.5488C46.5989 23.1267 47.5613 22.1642 48.9691 21.2736C47.547 20.383 46.5845 19.4206 45.7083 18.0129C44.8177 19.4493 43.8552 20.4117 42.4475 21.288Z" fill="black"/>
<path d="M31.2143 37.1612C30.7977 37.1612 30.4242 36.9314 30.2519 36.5579C29.2751 34.5469 28.5425 33.8286 26.5314 32.8375C26.1579 32.6507 25.9281 32.2773 25.9281 31.8751C25.9281 31.4728 26.1579 31.085 26.5314 30.9126C28.5425 29.9358 29.2607 29.2032 30.2519 27.1922C30.4386 26.8187 30.8121 26.5889 31.2143 26.5889C31.6165 26.5889 31.99 26.8187 32.1767 27.1922C33.1822 29.2176 33.8717 29.9071 35.8972 30.9126C36.2706 31.0994 36.5005 31.4728 36.5005 31.8751C36.5005 32.2916 36.2706 32.6651 35.8972 32.8375C33.8861 33.8143 33.1679 34.5469 32.1767 36.5579C32.0043 36.9314 31.6309 37.1612 31.2143 37.1612ZM29.1889 31.8751C30.022 32.4496 30.6541 33.0673 31.2143 33.9005C31.7889 33.0673 32.4209 32.4353 33.2541 31.8607C32.4209 31.2861 31.7889 30.6684 31.2143 29.8209C30.6541 30.6684 30.022 31.3005 29.1889 31.8751Z" fill="black"/>
</svg>
