<svg width="70" height="65" viewBox="0 0 70 65" fill="none" xmlns="http://www.w3.org/2000/svg">
<path fill-rule="evenodd" clip-rule="evenodd" d="M24.9135 15.4026C25.3599 17.9836 28.5687 19.9368 31.2753 19.9368C33.9819 19.9368 37.1908 17.9697 37.6372 15.4026H24.9135Z" fill="#FFE177"/>
<path fill-rule="evenodd" clip-rule="evenodd" d="M25.5691 15.626C25.9876 18.0675 29.043 19.937 31.6101 19.937C31.6798 19.937 31.7496 19.937 31.8194 19.937C29.3778 19.6998 26.7131 17.928 26.3085 15.6539H37.6371C37.6371 15.6399 37.6371 15.6399 37.6371 15.626H25.5691Z" fill="#FFD064"/>
<path fill-rule="evenodd" clip-rule="evenodd" d="M56.6112 15.6399C57.0298 18.0814 60.0712 19.923 62.6243 19.923C65.1774 19.923 68.2188 18.0675 68.6374 15.6399H56.6112Z" fill="#FFE177"/>
<path fill-rule="evenodd" clip-rule="evenodd" d="M57.5181 18.9186C58.7179 19.5604 60.0712 19.9231 61.3408 19.9231C64.438 19.9231 68.1352 17.677 68.6514 14.7192H67.8701C67.1446 17.5095 63.6149 19.5883 60.6432 19.5883C59.6108 19.6023 58.5226 19.3511 57.5181 18.9186Z" fill="#FFD064"/>
<path fill-rule="evenodd" clip-rule="evenodd" d="M39.2416 27.2336H52.4537C52.8443 27.2336 53.1513 27.5406 53.1513 27.9312V30.8471C53.1513 31.2377 52.8443 31.5447 52.4537 31.5447H39.2416C38.851 31.5447 38.5441 31.2377 38.5441 30.8471V27.9312C38.5441 27.5545 38.851 27.2336 39.2416 27.2336Z" fill="#ECBA78"/>
<path fill-rule="evenodd" clip-rule="evenodd" d="M52.4258 27.2336H52.4398C52.8304 27.2336 53.1373 27.5406 53.1373 27.9312V30.8471C53.1373 31.2377 52.8304 31.5447 52.4398 31.5447H39.2277C38.8789 31.5447 38.5859 31.2935 38.5441 30.9587H51.7282C52.1189 30.9587 52.4258 30.6518 52.4258 30.2611V27.3453C52.4398 27.3034 52.4258 27.2755 52.4258 27.2336Z" fill="#C48958"/>
<path fill-rule="evenodd" clip-rule="evenodd" d="M37.0653 30.54H54.6023C54.9929 30.54 55.2998 30.847 55.2998 31.2376V34.1535C55.2998 34.5441 54.9929 34.851 54.6023 34.851H37.0653C36.6746 34.851 36.3677 34.5441 36.3677 34.1535V31.2376C36.3677 30.847 36.6886 30.54 37.0653 30.54Z" fill="#837683"/>
<path fill-rule="evenodd" clip-rule="evenodd" d="M53.207 30.54H54.6022C54.9928 30.54 55.2998 30.847 55.2998 31.2376V34.1535C55.2998 34.5441 54.9928 34.851 54.6022 34.851H53.207C53.5977 34.851 53.9046 34.5441 53.9046 34.1535V31.2376C53.9046 30.847 53.5977 30.54 53.207 30.54Z" fill="#685E68"/>
<path d="M45.8407 6.78076C47.4049 6.78076 48.6729 5.51276 48.6729 3.94861C48.6729 2.38445 47.4049 1.11646 45.8407 1.11646C44.2765 1.11646 43.0085 2.38445 43.0085 3.94861C43.0085 5.51276 44.2765 6.78076 45.8407 6.78076Z" fill="#FFE177"/>
<path fill-rule="evenodd" clip-rule="evenodd" d="M45.8406 1.11646C47.4032 1.11646 48.6728 2.38604 48.6728 3.94861C48.6728 5.51118 47.4032 6.78076 45.8406 6.78076C45.7151 6.78076 45.5895 6.76681 45.4779 6.75286C46.8731 6.57149 47.9473 5.38561 47.9473 3.93466C47.9473 2.49765 46.8731 1.29782 45.4779 1.11646C45.5895 1.11646 45.7151 1.11646 45.8406 1.11646Z" fill="#FFD064"/>
<path fill-rule="evenodd" clip-rule="evenodd" d="M6.24622 44.9378L19.3327 37.3621C21.7882 35.9391 24.2855 34.9345 26.9781 35.8135C29.9917 36.7901 34.9026 38.8828 39.9112 39.7897C41.7667 40.3896 42.9247 42.2591 42.4224 44.1425C41.9202 46.026 40.3158 47.0026 38.0696 46.6538L39.8275 46.9328C41.8365 47.2537 43.6781 46.9747 45.436 45.9562L58.0063 38.6317C67.7863 32.9395 69.2233 41.701 65.9726 43.6961L43.134 57.7452C41.0412 59.0427 38.7393 59.3357 36.3535 58.6939L19.8071 54.2574L13.6684 57.801C12.4965 58.4847 10.9758 58.0801 10.2922 56.8942L5.33938 48.314C4.65575 47.1281 5.06035 45.6214 6.24622 44.9378Z" fill="#FED2A4"/>
<path fill-rule="evenodd" clip-rule="evenodd" d="M42.1155 44.9097C41.418 46.277 39.9809 46.9327 38.0556 46.6397C35.3491 45.9282 32.6285 45.1887 29.9219 44.4633C29.1964 44.2679 28.764 43.5285 28.9593 42.803C29.1546 42.0776 29.894 41.6451 30.6195 41.8404L42.1155 44.9097Z" fill="#FFBD86"/>
<path fill-rule="evenodd" clip-rule="evenodd" d="M6.24622 44.9378L19.3327 37.3621C21.7882 35.9391 24.2855 34.9345 26.9781 35.8135C28.5826 36.3297 30.745 37.1807 33.1586 37.9899L7.82274 52.6111L5.33938 48.314C4.65575 47.1281 5.06035 45.6214 6.24622 44.9378Z" fill="#FFBD86"/>
<path fill-rule="evenodd" clip-rule="evenodd" d="M7.54373 40.8079L17.9236 59.1401C18.4259 60.033 18.105 61.1631 17.2261 61.6654L13.6963 63.6604C12.8034 64.1627 11.6734 63.8418 11.1711 62.9628L0.791211 44.6306C0.288957 43.7377 0.609842 42.6076 1.48879 42.1054L5.01851 40.1103C5.91141 39.608 7.04148 39.9289 7.54373 40.8079Z" fill="#D1D1D6"/>
<path fill-rule="evenodd" clip-rule="evenodd" d="M12.9988 53.406L14.8404 56.6567L16.6541 59.8656C17.1563 60.7445 16.8354 61.8885 15.9565 62.3908L17.2121 61.6792C18.105 61.177 18.412 60.0469 17.9097 59.154L16.0821 55.9312L12.4268 49.4717L8.75752 42.9982L7.52979 40.8218C7.09729 40.0544 6.19045 39.7196 5.36731 39.9707L7.50189 43.7376L11.1572 50.1972L12.9988 53.406Z" fill="#B1B1B5"/>
<path fill-rule="evenodd" clip-rule="evenodd" d="M5.17199 43.5425C4.48837 43.6402 4.01402 44.282 4.11168 44.9656C4.20934 45.6492 4.85111 46.1375 5.53473 46.0259C6.21835 45.9282 6.70666 45.2865 6.59504 44.6028C6.48343 43.9192 5.85561 43.4449 5.17199 43.5425Z" fill="#685E68"/>
<path fill-rule="evenodd" clip-rule="evenodd" d="M26.6714 13.6027L30.8987 6.45954L35.126 13.6027H26.6714ZM30.8987 18.8206C28.8478 18.8206 27.0481 17.6207 26.211 15.8489H35.5725C34.7493 17.6207 32.9496 18.8206 30.8987 18.8206ZM46.3988 2.23224C47.3475 2.23224 48.1149 2.99957 48.1149 3.94827C48.1149 4.89697 47.3475 5.66431 46.3988 5.66431C45.4501 5.66431 44.6828 4.89697 44.6828 3.94827C44.6688 2.99957 45.4501 2.23224 46.3988 2.23224ZM61.885 18.8206C59.8341 18.8206 58.0344 17.6207 57.1973 15.8489H66.5587C65.7495 17.6207 63.9498 18.8206 61.885 18.8206ZM66.1262 13.6027H57.6577L61.885 6.45954L66.1262 13.6027ZM52.5793 29.4237H40.2044V28.3634H52.5793V29.4237ZM54.7418 33.7347H38.0419V31.6559H54.7418V33.7347ZM23.5881 14.7886C23.5881 14.8304 23.6021 14.8723 23.6021 14.9002C23.6021 14.9002 23.6021 14.9002 23.6021 14.9141C24.216 18.4718 27.2853 21.0528 30.8987 21.0528C34.5122 21.0528 37.5815 18.4718 38.1953 14.9141C38.1953 14.9141 38.1953 14.9141 38.1953 14.9002C38.1953 14.8583 38.2093 14.8304 38.2093 14.7886C38.2093 14.7467 38.2093 14.7049 38.2093 14.677V14.663C38.2093 14.6351 38.2093 14.5933 38.1953 14.5654C38.1953 14.5514 38.1953 14.5375 38.1953 14.5375C38.1953 14.5096 38.1814 14.4816 38.1814 14.4537C38.1814 14.4398 38.1674 14.4258 38.1674 14.4119C38.1535 14.384 38.1535 14.37 38.1395 14.3421C38.1395 14.3282 38.1256 14.3142 38.1256 14.3003C38.1116 14.2724 38.1116 14.2584 38.0977 14.2445C38.0837 14.2305 38.0837 14.2166 38.0698 14.2026C38.0698 14.1887 38.0558 14.1887 38.0558 14.1747L33.1449 5.88753C33.5495 5.92938 33.9122 5.95729 34.261 5.95729C35.698 5.95729 36.6467 5.59455 37.5675 5.24576C38.7674 4.78536 39.8974 4.36682 42.5343 4.78536C42.8412 6.20841 43.9015 7.35244 45.2827 7.75703V25.8521C45.2827 25.9498 45.2967 26.0474 45.3246 26.1451H39.1022C38.4883 26.1451 37.9861 26.6474 37.9861 27.2612V29.4376H36.9397C36.3258 29.4376 35.8236 29.9399 35.8236 30.5538V34.8648C35.8236 35.4786 36.3258 35.9809 36.9397 35.9809H55.8719C56.4857 35.9809 56.988 35.4786 56.988 34.8648V30.5538C56.988 29.9399 56.4857 29.4376 55.8719 29.4376H54.8255V27.2612C54.8255 26.6474 54.3233 26.1451 53.7094 26.1451H47.487C47.5149 26.0474 47.5289 25.9498 47.5289 25.8521V7.75703C48.9101 7.35244 49.9844 6.20841 50.2773 4.78536C52.9002 4.35287 54.0442 4.78536 55.2441 5.24576C56.1649 5.59455 57.1136 5.95729 58.5506 5.95729C58.8854 5.95729 59.2621 5.92938 59.6667 5.88753L54.7558 14.1747C54.7558 14.1887 54.7418 14.1887 54.7418 14.2026C54.7279 14.2166 54.7279 14.2305 54.7139 14.2445C54.7 14.2584 54.7 14.2863 54.686 14.3003C54.686 14.3142 54.6721 14.3282 54.6721 14.3421C54.6581 14.37 54.6581 14.384 54.6442 14.4119C54.6442 14.4258 54.6302 14.4398 54.6302 14.4537C54.6302 14.4816 54.6162 14.5096 54.6162 14.5375C54.6162 14.5514 54.6162 14.5654 54.6162 14.5654C54.6162 14.5933 54.6023 14.6212 54.6023 14.663C54.6023 14.677 54.6023 14.677 54.6023 14.677C54.6023 14.7188 54.6023 14.7607 54.6023 14.7886C54.6023 14.8304 54.6023 14.8583 54.6162 14.9002C54.6162 14.9002 54.6162 14.9002 54.6162 14.9141C55.2301 18.4718 58.2994 21.0528 61.9129 21.0528C65.5263 21.0528 68.5956 18.4718 69.2095 14.9141C69.2095 14.9141 69.2095 14.9141 69.2095 14.9002C69.2095 14.8583 69.2235 14.8304 69.2235 14.7886C69.2235 14.7467 69.2235 14.7049 69.2235 14.677V14.663C69.2235 14.6351 69.2235 14.5933 69.2095 14.5654C69.2095 14.5514 69.2095 14.5514 69.2095 14.5375C69.2095 14.5096 69.1956 14.4816 69.1956 14.4537C69.1956 14.4398 69.1956 14.4258 69.1816 14.4119C69.1677 14.384 69.1677 14.37 69.1537 14.3421C69.1537 14.3282 69.1398 14.3142 69.1398 14.3003C69.1258 14.2724 69.1258 14.2584 69.1118 14.2305C69.0979 14.2166 69.0979 14.2026 69.0839 14.1887C69.0839 14.1747 69.07 14.1747 69.07 14.1608L62.8755 3.7111C62.8755 3.7111 62.8755 3.69715 62.8616 3.69715C62.8197 3.61344 62.7639 3.54368 62.6942 3.48787C62.6802 3.47392 62.6802 3.47392 62.6663 3.45997C62.6384 3.43207 62.6244 3.41812 62.5965 3.39021C62.5826 3.37626 62.5826 3.37626 62.5686 3.36231C62.5407 3.33441 62.4988 3.32046 62.4709 3.29255C62.4709 3.29255 62.457 3.29255 62.457 3.2786C62.4151 3.2507 62.3872 3.23675 62.3454 3.22279C62.3314 3.22279 62.3175 3.20884 62.3175 3.20884C62.2896 3.19489 62.2617 3.18094 62.2198 3.18094C62.2059 3.18094 62.1919 3.18094 62.1919 3.16699C62.1082 3.13909 62.0245 3.13909 61.9268 3.13909C61.9268 3.13909 61.9268 3.13909 61.9129 3.13909H61.8989C61.871 3.13909 61.8292 3.13909 61.7873 3.13909C61.7734 3.13909 61.7594 3.13909 61.7455 3.13909C61.7036 3.13909 61.6757 3.15304 61.6339 3.16699C61.6199 3.16699 61.6199 3.16699 61.6059 3.16699C58.4808 4.03198 57.4065 3.62739 56.0254 3.09723C54.686 2.59498 53.1932 2.02297 50.096 2.49732C49.51 1.06031 48.073 0 46.3988 0C44.7107 0 43.2737 1.06031 42.7017 2.53917C39.6044 2.06482 38.1116 2.63683 36.7723 3.13909C35.405 3.65529 34.3168 4.07384 31.1917 3.20884C31.1777 3.20884 31.1777 3.20884 31.1638 3.20884C31.1219 3.19489 31.094 3.19489 31.0522 3.18094C31.0382 3.18094 31.0243 3.18094 31.0103 3.18094C30.9685 3.18094 30.9406 3.18094 30.8987 3.16699H30.8848C30.8848 3.16699 30.8848 3.16699 30.8708 3.16699C30.7732 3.16699 30.6894 3.18094 30.6057 3.19489C30.5918 3.19489 30.5918 3.19489 30.5778 3.20884C30.5499 3.22279 30.5081 3.23675 30.4802 3.23675C30.4662 3.23675 30.4662 3.2507 30.4523 3.2507C30.4104 3.26465 30.3686 3.29255 30.3267 3.3065C30.2849 3.33441 30.257 3.34836 30.2151 3.37626C30.2011 3.37626 30.2011 3.39021 30.1872 3.39021C30.1593 3.41812 30.1314 3.43207 30.1035 3.45997C30.0895 3.45997 30.0895 3.47392 30.0756 3.47392C30.0198 3.54368 29.95 3.61344 29.9082 3.68319C29.9082 3.68319 29.9082 3.68319 29.9082 3.69715L23.7137 14.1468C23.7137 14.1608 23.6997 14.1608 23.6997 14.1747C23.6858 14.1887 23.6858 14.2026 23.6718 14.2166C23.6579 14.2445 23.6579 14.2584 23.6439 14.2863C23.6439 14.3003 23.63 14.3142 23.63 14.3282C23.616 14.3561 23.616 14.37 23.6021 14.3979C23.6021 14.4119 23.5881 14.4258 23.5881 14.4398C23.5742 14.4677 23.5742 14.4956 23.5742 14.5235C23.5742 14.5375 23.5742 14.5514 23.5742 14.5514C23.5742 14.5793 23.5602 14.6212 23.5602 14.6491V14.663C23.5881 14.7188 23.5881 14.7467 23.5881 14.7886ZM7.15328 44.6169C7.25094 45.3005 6.77659 45.9423 6.09297 46.0399C5.40934 46.1376 4.76757 45.6632 4.66991 44.9796C4.57225 44.296 5.0466 43.6542 5.73023 43.5566C6.41385 43.4589 7.05562 43.9332 7.15328 44.6169ZM65.9309 42.7474L43.1063 56.7965C41.2926 57.9126 39.3115 58.1917 37.2048 57.6197L20.6444 53.197C20.3514 53.1273 20.0584 53.1552 19.7933 53.3087L17.2821 54.7596L11.0597 43.7658L20.4351 38.3387C22.5278 37.1249 24.8019 36.1065 27.1876 36.8738C27.955 37.1249 28.8339 37.4458 29.8524 37.8085C32.7822 38.8689 36.4096 40.1803 40.1904 40.8639C41.5019 41.3243 42.2413 42.5939 41.9064 43.8495C41.46 45.4958 40.0928 45.7051 39.0045 45.5795C37.149 45.2028 35.3911 44.7006 33.5355 44.1704C32.6566 43.9193 31.7358 43.6542 30.8011 43.4031C30.2011 43.2496 29.5873 43.5984 29.4338 44.1983C29.2803 44.7982 29.6291 45.4121 30.229 45.5656C31.1498 45.8167 32.0567 46.0678 32.9356 46.319C34.8609 46.8631 36.6746 47.3793 38.6139 47.7839C38.6278 47.7839 38.6278 47.7839 38.6418 47.7839C38.6557 47.7839 38.6557 47.7839 38.6697 47.7839L40.2323 48.035C42.5761 48.4117 44.6409 48.0489 46.5802 46.9189L59.1644 39.5943C62.7918 37.4877 65.5682 37.2784 66.6145 39.0223C67.2982 40.2222 66.9773 42.1056 65.9309 42.7474ZM17.575 60.2425C17.6308 60.0472 17.6029 59.8519 17.5053 59.6845L7.13933 41.3522C6.99981 41.115 6.74869 40.9755 6.49756 40.9755C6.372 40.9755 6.24643 41.0034 6.14877 41.0732L2.61905 43.0683C2.27026 43.2636 2.14469 43.724 2.34002 44.0728L12.692 62.405C12.7897 62.5724 12.9431 62.698 13.1385 62.7538C13.3338 62.8096 13.5291 62.7817 13.6965 62.6841L17.2263 60.689C17.3937 60.5913 17.5192 60.4379 17.575 60.2425ZM57.9925 37.6551L45.4083 44.9796C44.7804 45.3424 44.1387 45.6074 43.469 45.7609C43.7201 45.3563 43.9155 44.9099 44.041 44.4216C44.6828 42.0219 43.2597 39.5106 40.7903 38.7154C40.7485 38.7014 40.6927 38.6875 40.6508 38.6735C37.0374 38.0178 33.4658 36.7343 30.6057 35.7019C29.6152 35.3391 28.6665 35.0043 27.8712 34.7392C24.6485 33.6929 21.7465 34.9903 19.319 36.3855L9.95753 41.7987L9.07859 40.2361C8.68794 39.5525 8.04618 39.0502 7.29279 38.841C6.52546 38.6317 5.73023 38.7293 5.03265 39.12L1.50293 41.1151C0.0798739 41.9242 -0.42238 43.7379 0.386807 45.161L10.7667 63.4932C11.1574 64.1769 11.7852 64.6791 12.5525 64.8884C12.8176 64.9582 13.0827 65 13.3477 65C13.85 65 14.3522 64.8744 14.7987 64.6094L18.3284 62.6143C19.012 62.2237 19.5143 61.5958 19.7236 60.8285C19.9328 60.0612 19.8352 59.2659 19.4445 58.5684L18.3703 56.671L20.5049 55.4432L36.6188 59.7542C37.5257 60.0054 38.4186 60.117 39.2975 60.117C41.0415 60.117 42.7017 59.6287 44.2782 58.666L67.1028 44.6448C69.1816 43.3612 69.8373 40.1384 68.484 37.8643C67.8283 36.7761 65.1217 33.5115 57.9925 37.6551Z" fill="black"/>
</svg>
