<svg width="59" height="65" viewBox="0 0 59 65" fill="none" xmlns="http://www.w3.org/2000/svg">
<path d="M49.8033 62.3594C48.3814 58.462 47.5943 54.7931 47.2769 50.2609C47.0992 47.7599 47.8863 45.2844 49.524 43.3801C58.893 32.4241 58.9057 18.7387 50.7046 10.0298C46.8961 5.98004 43.6842 3.21248 39.0124 2.05722C38.6696 1.96835 38.1491 1.71445 37.8063 1.63828C32.5886 0.533797 27.2058 0.876567 22.4197 1.96835C14.4598 3.78377 10.3593 8.4683 8.51849 11.2105C7.07123 13.3686 6.22066 15.3872 5.94136 19.8305C5.80172 22.0649 4.88766 22.5473 4.5322 24.3119C4.31638 25.3783 4.69723 26.3304 5.07809 26.9652C5.47164 27.6253 5.5859 28.4251 5.39547 29.1869C5.3066 29.5423 5.19235 29.9359 5.0527 30.3421C4.02439 33.3128 2.71678 35.1536 1.66308 36.347C1.30762 36.7532 1.10449 37.2737 1.10449 37.8196C1.10449 38.5559 1.47265 39.2415 2.08202 39.6604C2.56444 39.9778 3.09764 40.1936 3.66892 40.2825L5.80172 40.5871C5.8525 40.5998 5.89058 40.6252 5.90328 40.676C6.00484 41.0442 6.38569 42.5803 5.43356 43.4182C4.92575 43.8625 4.73532 44.4465 5.3066 45.2082C5.56051 45.551 5.89058 45.8049 6.0937 45.9318C6.16988 45.9826 6.16988 46.0969 6.0937 46.1476C5.16696 46.7697 5.11617 48.0646 6.33491 48.6994C6.58882 48.8263 6.91889 48.9406 7.21088 49.1437C7.51557 49.3595 7.74408 50.2101 7.23627 51.1115C6.83003 51.8224 6.20796 52.6476 6.58882 54.0568C7.33783 56.7989 10.3974 57.4845 13.2538 57.002C15.5643 56.6212 17.3543 55.339 19.0174 56.6212C20.1981 57.5352 21.5945 59.084 21.8231 63.5781C21.8358 63.8447 22.0643 64.0606 22.3309 64.0606H47.6451L49.3462 63.045C49.6763 63.0323 49.9175 62.6895 49.8033 62.3594Z" fill="#FED2A4"/>
<path d="M51.314 63.3622C51.4409 63.6923 51.187 64.0478 50.8315 64.0478H47.6197C46.147 59.9218 44.3316 53.5235 44.0269 49.0801C43.8492 46.5411 44.6998 44.0528 46.3374 42.1105C55.6303 31.1799 55.6684 16.8343 47.4927 8.15082C44.5855 5.06589 41.2721 2.95848 37.7809 1.62549C42.8209 2.69188 47.7085 5.07858 51.8091 9.42034C59.9848 18.1039 59.9467 32.4494 50.6538 43.38C49.0034 45.3097 48.1656 47.8106 48.3433 50.3497C48.6607 54.8945 49.8921 59.4775 51.314 63.3622Z" fill="#FFBD86"/>
<path d="M40.4722 35.5724C40.4722 40.8282 36.9175 44.6495 31.6617 44.6495C27.5993 44.6495 24.0954 42.3644 22.737 38.8859C22.3307 37.8703 22.1403 36.7531 22.1403 35.5724C22.1403 30.3166 26.4059 26.051 31.6617 26.051C34.6578 26.051 37.3238 27.4348 39.063 29.5803C39.063 29.5803 39.2661 29.9738 39.3931 30.1516C40.4849 31.7131 40.4722 33.5412 40.4722 35.5724Z" fill="#FFE077"/>
<path d="M41.1832 35.5725C41.1832 40.8283 36.9176 45.0939 31.6618 45.0939C27.5739 45.0939 24.0828 42.5167 22.7371 38.8859C24.4763 41.0441 27.155 42.4279 30.1384 42.4279C35.3942 42.4279 39.6598 38.1623 39.6598 32.9065C39.6598 31.7385 39.4439 30.6213 39.0631 29.5803C40.3961 31.2307 41.1832 33.3127 41.1832 35.5725Z" fill="#FFD05B"/>
<path d="M49.1049 24.2736C49.1049 29.5294 45.5503 33.3507 40.2945 33.3507C36.232 33.3507 32.7281 31.0655 31.3697 27.587C30.9635 26.5714 30.7731 25.4542 30.7731 24.2736C30.7731 19.0178 35.0387 14.7522 40.2945 14.7522C43.2905 14.7522 45.9565 16.136 47.6958 18.2815C47.6958 18.2815 47.8989 18.675 48.0258 18.8527C49.1176 20.4143 49.1049 22.2424 49.1049 24.2736Z" fill="#BBF39B"/>
<path d="M49.8158 24.2734C49.8158 29.5292 45.5502 33.7948 40.2944 33.7948C36.2066 33.7948 32.7154 31.2177 31.3697 27.5868C33.1089 29.745 35.7876 31.1288 38.771 31.1288C44.0268 31.1288 48.2924 26.8632 48.2924 21.6074C48.2924 20.4394 48.0766 19.3223 47.6957 18.2812C49.0287 19.9316 49.8158 22.0136 49.8158 24.2734Z" fill="#9AE59C"/>
<path d="M32.7281 19.7797C32.7281 25.0355 29.1735 28.8568 23.9176 28.8568C19.8552 28.8568 16.3513 26.5716 14.9929 23.0931C14.5867 22.0775 14.3962 20.9604 14.3962 19.7797C14.3962 14.5239 18.6618 10.2583 23.9176 10.2583C26.9137 10.2583 29.5797 11.6421 31.3189 13.7876C31.3189 13.7876 31.5221 14.1811 31.649 14.3588C32.7408 15.9077 32.7281 17.7358 32.7281 19.7797Z" fill="#FE8991"/>
<path d="M33.439 19.7795C33.439 25.0353 29.1735 29.3009 23.9176 29.3009C19.8298 29.3009 16.3386 26.7238 14.9929 23.0929C16.7322 25.2511 19.4108 26.6349 22.3942 26.6349C27.65 26.6349 31.9156 22.3693 31.9156 17.1135C31.9156 15.9455 31.6998 14.8284 31.3189 13.7874C32.6519 15.425 33.439 17.507 33.439 19.7795Z" fill="#FE646F"/>
<path d="M21.6961 65.0001C21.1883 65.0001 20.7567 64.5938 20.744 64.0733C20.6043 59.7189 19.4237 58.2335 18.2938 57.3576C17.5448 56.7736 16.745 56.9767 15.285 57.421C14.6757 57.5988 13.9901 57.8146 13.2538 57.9288C9.33097 58.589 6.29682 57.1544 5.50972 54.2853C5.05269 52.6223 5.70014 51.5305 6.13178 50.8068C6.16987 50.7434 6.20795 50.6799 6.24604 50.6037C6.44916 50.2483 6.43647 49.9563 6.41108 49.8293C6.30951 49.7785 6.19526 49.7278 6.081 49.677C5.96674 49.6262 5.85249 49.5754 5.73823 49.5119C4.83687 49.0676 4.30367 48.2551 4.30367 47.3538C4.30367 46.9094 4.43062 46.4778 4.67183 46.0969C4.57027 45.9954 4.48141 45.8811 4.39254 45.7668C3.58005 44.6878 3.68161 43.5325 4.65914 42.6819C4.97652 42.4026 5.00191 41.8567 4.95113 41.4251L3.38962 41.1966C2.67869 41.095 1.99315 40.8284 1.39647 40.4222C0.520503 39.8255 0 38.848 0 37.7943C0 37.0199 0.279294 36.2708 0.799797 35.6996C2.15818 34.1507 3.21189 32.2972 3.99899 30.0121C4.12594 29.6566 4.2275 29.3012 4.32906 28.933C4.45601 28.4252 4.37984 27.8793 4.12594 27.4477C3.66891 26.686 3.1865 25.4926 3.46579 24.1215C3.64352 23.2583 3.93551 22.6489 4.18942 22.1157C4.5068 21.4429 4.78609 20.8589 4.86226 19.7544C5.15425 15.1206 6.0937 12.9117 7.60442 10.6646C8.27727 9.67441 11.1337 6.19592 13.952 4.41859C14.3964 4.1393 14.9803 4.26625 15.2596 4.71058C15.5389 5.15491 15.412 5.73889 14.9676 6.01819C12.4159 7.63048 9.68644 10.9693 9.17863 11.7183C7.82024 13.7496 7.03314 15.6411 6.75385 19.8686C6.66498 21.3413 6.25873 22.1792 5.90327 22.9282C5.66206 23.4233 5.45894 23.8549 5.33198 24.4897C5.17964 25.2768 5.48433 26.0004 5.76362 26.4702C6.28412 27.3461 6.43647 28.4125 6.18256 29.4154C6.081 29.8344 5.95405 30.2406 5.8144 30.6469C4.93843 33.1732 3.77047 35.2425 2.23436 36.9691C2.03123 37.1976 1.91698 37.5023 1.91698 37.807C1.91698 38.2259 2.1201 38.6195 2.47556 38.8607C2.83103 39.1019 3.24997 39.2669 3.66891 39.3304L5.87788 39.6478C6.23334 39.6985 6.52533 39.9398 6.63959 40.2825C6.95697 41.1966 7.16009 43.0501 5.91596 44.1292C5.72553 44.2942 5.71284 44.345 5.92866 44.637C6.14448 44.9163 6.47455 45.1448 6.6015 45.2083C6.90619 45.386 7.08392 45.7034 7.08392 46.0461C7.08392 46.3889 6.8808 46.7063 6.57611 46.8713C6.3603 46.9856 6.22065 47.1633 6.22065 47.3411C6.22065 47.5823 6.47455 47.76 6.62689 47.8362C6.69037 47.8616 6.76654 47.8996 6.85541 47.9377C7.07123 48.0266 7.33783 48.1535 7.60442 48.3313C8.34075 48.8391 8.67082 50.2229 7.90911 51.5559C7.87102 51.632 7.82024 51.7082 7.78216 51.7717C7.414 52.3937 7.12201 52.8889 7.36322 53.7775C7.97259 56.0246 10.6513 56.4181 12.9491 56.0373C13.5712 55.9357 14.1678 55.758 14.7391 55.5802C16.2879 55.1105 17.8875 54.6281 19.449 55.8341C20.9344 56.9767 22.4832 58.8429 22.6355 63.9972C22.6482 64.5177 22.242 64.962 21.7088 64.9747C21.7088 65.0001 21.6961 65.0001 21.6961 65.0001Z" fill="black"/>
<path d="M51.4409 43.228C51.2378 43.228 51.0347 43.1645 50.857 43.0249C50.438 42.7075 50.3619 42.0981 50.6919 41.6919C58.5756 31.5484 58.7153 18.2565 51.0093 10.0808C41.7672 0.267426 29.1736 1.35921 22.4959 2.88264C19.7156 3.5174 17.1893 4.5711 14.9676 6.01835C14.5233 6.31034 13.9393 6.18339 13.6473 5.73906C13.3553 5.29473 13.4823 4.71075 13.9266 4.41876C16.326 2.84455 19.0682 1.70198 22.0643 1.01644C27.4216 -0.1896 32.779 -0.329248 37.5778 0.635587C43.4176 1.80355 48.4068 4.54571 52.3804 8.77321C56.4048 13.0515 58.6264 18.7897 58.6137 24.9596C58.6137 31.1802 56.3159 37.5405 52.1773 42.8725C51.9995 43.1137 51.7202 43.228 51.4409 43.228Z" fill="black"/>
<path d="M51.441 65C51.0601 65 50.692 64.7715 50.5523 64.3906C49.2701 61.001 47.6578 55.8214 47.2769 50.4259C47.1754 48.9533 47.4166 47.4044 47.9879 45.8429C48.5972 44.1926 49.9049 42.6057 50.3365 42.0852C50.3746 42.0471 50.4 42.009 50.4127 41.9836C50.6666 41.6154 51.149 41.4631 51.5679 41.6408C52.0503 41.844 52.2789 42.4025 52.0757 42.885C52.0123 43.0246 51.9488 43.1008 51.7964 43.2912C51.4156 43.7482 50.2603 45.1447 49.7652 46.4904C49.2828 47.798 49.0924 49.0802 49.1685 50.2863C49.5367 55.4532 51.0855 60.4424 52.3296 63.7051C52.5201 64.2002 52.2662 64.7461 51.771 64.9365C51.6695 64.9746 51.5552 65 51.441 65Z" fill="black"/>
<path d="M22.8386 40.105C22.4578 40.105 22.1023 39.8765 21.9499 39.5083C21.4421 38.2642 21.1882 36.9312 21.1882 35.5728C21.1882 33.0211 22.115 30.5709 23.7907 28.6539C24.1335 28.2604 24.7429 28.2223 25.1364 28.565C25.53 28.9078 25.5681 29.5172 25.2253 29.9107C23.8542 31.4849 23.0925 33.4908 23.0925 35.5728C23.0925 36.69 23.3083 37.7691 23.7146 38.7847C23.9177 39.2671 23.6765 39.8257 23.1941 40.0288C23.0798 40.0796 22.9529 40.105 22.8386 40.105Z" fill="black"/>
<path d="M31.6618 46.059C29.1227 46.059 26.6726 45.1449 24.7683 43.4692C24.3747 43.1264 24.3366 42.517 24.6794 42.1235C25.0222 41.7299 25.6316 41.6918 26.0251 42.0346C27.5866 43.4057 29.5925 44.1547 31.6618 44.1547C36.3844 44.1547 40.231 40.308 40.231 35.5854C40.231 35.0522 40.1803 34.5063 40.0787 33.9858C39.9771 33.4653 40.3199 32.9702 40.8404 32.8687C41.3609 32.7671 41.856 33.1099 41.9576 33.6304C42.0845 34.2651 42.1353 34.9253 42.1353 35.5854C42.1353 41.3491 37.4381 46.059 31.6618 46.059Z" fill="black"/>
<path d="M28.4879 35.5727C27.9674 35.5727 27.5358 35.1411 27.5358 34.6206V32.0815C27.5358 31.561 27.9674 31.1294 28.4879 31.1294C29.0084 31.1294 29.44 31.561 29.44 32.0815V34.6206C29.44 35.1538 29.0084 35.5727 28.4879 35.5727Z" fill="black"/>
<path d="M34.8355 35.5727C34.315 35.5727 33.8834 35.1411 33.8834 34.6206V32.0815C33.8834 31.561 34.315 31.1294 34.8355 31.1294C35.356 31.1294 35.7876 31.561 35.7876 32.0815V34.6206C35.7876 35.1538 35.356 35.5727 34.8355 35.5727Z" fill="black"/>
<path d="M34.2008 40.5493C33.9596 40.5493 33.7184 40.4604 33.528 40.27C32.4997 39.2417 30.8239 39.2417 29.7956 40.27C29.4274 40.6382 28.818 40.6382 28.4499 40.27C28.0817 39.9018 28.0817 39.2925 28.4499 38.9243C30.2145 37.1597 33.0963 37.1597 34.8737 38.9243C35.2418 39.2925 35.2418 39.9018 34.8737 40.27C34.6832 40.4604 34.442 40.5493 34.2008 40.5493Z" fill="black"/>
<path d="M40.2946 34.7605C35.3435 34.7605 31.0271 31.2439 30.0369 26.3943C29.9354 25.8738 30.2654 25.3787 30.7732 25.2644C31.2937 25.1629 31.7888 25.493 31.8904 26.0008C32.7029 29.9617 36.2322 32.8435 40.2819 32.8435C45.0045 32.8435 48.8512 28.9968 48.8512 24.2742C48.8512 20.7069 46.6041 17.4696 43.2526 16.2382C42.7575 16.0604 42.5036 15.5145 42.694 15.0194C42.8718 14.5243 43.4177 14.2704 43.9128 14.4608C48.0006 15.9716 50.7555 19.9198 50.7555 24.2869C50.7682 30.0505 46.0709 34.7605 40.2946 34.7605Z" fill="black"/>
<path d="M33.2869 18.79C33.0583 18.79 32.8298 18.7012 32.6394 18.5361C32.2586 18.1807 32.2332 17.584 32.5886 17.1904C34.3152 15.3242 36.6384 14.1309 39.1647 13.8643C39.6852 13.8135 40.155 14.1817 40.2184 14.7022C40.2692 15.2227 39.9011 15.6924 39.3806 15.7559C37.3239 15.9844 35.407 16.9492 34.0105 18.4727C33.7947 18.6885 33.5408 18.79 33.2869 18.79Z" fill="black"/>
<path d="M37.1208 24.2744C36.6003 24.2744 36.1687 23.8427 36.1687 23.3222V20.7832C36.1687 20.2627 36.6003 19.8311 37.1208 19.8311C37.6413 19.8311 38.073 20.2627 38.073 20.7832V23.3222C38.073 23.8554 37.6413 24.2744 37.1208 24.2744Z" fill="black"/>
<path d="M43.4685 24.2744C42.948 24.2744 42.5164 23.8427 42.5164 23.3222V20.7832C42.5164 20.2627 42.948 19.8311 43.4685 19.8311C43.989 19.8311 44.4206 20.2627 44.4206 20.7832V23.3222C44.4206 23.8554 43.989 24.2744 43.4685 24.2744Z" fill="black"/>
<path d="M40.2946 29.5046C39.1266 29.5046 37.9714 29.0603 37.0827 28.1716C36.7145 27.8035 36.7145 27.1941 37.0827 26.8259C37.4509 26.4578 38.0602 26.4578 38.4284 26.8259C39.4567 27.8542 41.1325 27.8542 42.1608 26.8259C42.5289 26.4578 43.1383 26.4578 43.5065 26.8259C43.8746 27.1941 43.8746 27.8035 43.5065 28.1716C42.6178 29.0603 41.4625 29.5046 40.2946 29.5046Z" fill="black"/>
<path d="M23.9178 30.2408C18.1414 30.2408 13.4442 25.5436 13.4442 19.7672C13.4442 13.9909 18.1414 9.2937 23.9178 9.2937C29.6941 9.2937 34.3913 13.9909 34.3913 19.7672C34.3913 25.5436 29.6941 30.2408 23.9178 30.2408ZM23.9178 11.198C19.1951 11.198 15.3485 15.0446 15.3485 19.7672C15.3485 24.4899 19.1951 28.3365 23.9178 28.3365C28.6404 28.3365 32.487 24.5025 32.487 19.7799C32.487 15.0573 28.6404 11.198 23.9178 11.198Z" fill="black"/>
<path d="M20.1092 20.4653C19.868 20.4653 19.6268 20.3764 19.4364 20.186C19.0682 19.8178 19.0682 19.2085 19.4364 18.8403L20.287 17.9897L19.4364 17.1391C19.0682 16.771 19.0682 16.1616 19.4364 15.7935C19.8046 15.4253 20.4139 15.4253 20.7821 15.7935L22.3055 17.3169C22.6737 17.685 22.6737 18.2944 22.3055 18.6626L20.7821 20.186C20.5917 20.3764 20.3505 20.4653 20.1092 20.4653Z" fill="black"/>
<path d="M27.7264 20.4653C27.4851 20.4653 27.2439 20.3764 27.0535 20.186L25.5301 18.6626C25.1619 18.2944 25.1619 17.685 25.5301 17.3169L27.0535 15.7935C27.4217 15.4253 28.031 15.4253 28.3992 15.7935C28.7674 16.1616 28.7674 16.771 28.3992 17.1391L27.5486 17.9897L28.3992 18.8403C28.7674 19.2085 28.7674 19.8178 28.3992 20.186C28.2088 20.3764 27.9676 20.4653 27.7264 20.4653Z" fill="black"/>
<path d="M26.4568 24.9975C26.2156 24.9975 25.9744 24.9087 25.7839 24.7182C24.7556 23.6899 23.0799 23.6899 22.0516 24.7182C21.6834 25.0864 21.074 25.0864 20.7059 24.7182C20.3377 24.3501 20.3377 23.7407 20.7059 23.3725C22.4705 21.6079 25.3523 21.6079 27.1296 23.3725C27.4978 23.7407 27.4978 24.3501 27.1296 24.7182C26.9392 24.9087 26.698 24.9975 26.4568 24.9975Z" fill="black"/>
</svg>
