<svg width="66" height="65" viewBox="0 0 66 65" fill="none" xmlns="http://www.w3.org/2000/svg">
<mask id="mask0_4_598" style="mask-type:luminance" maskUnits="userSpaceOnUse" x="0" y="0" width="66" height="65">
<path d="M65.1404 0H0V65H65.1404V0Z" fill="white"/>
</mask>
<g mask="url(#mask0_4_598)">
<path d="M47.7213 4.71118C43.5898 4.71118 39.8209 6.30119 36.9679 8.91947C36.4241 9.41456 35.5844 9.41457 35.031 8.90995C32.1781 6.29167 28.4091 4.70166 24.2776 4.70166C15.3658 4.70166 8.14282 12.0995 8.14282 21.2206C8.14282 31.7604 27.0924 47.3463 33.7333 52.4877C35.0692 53.5254 36.9393 53.5254 38.2751 52.4877C44.9161 47.3463 63.8657 31.7509 63.8657 21.2206C63.8657 12.109 56.6427 4.71118 47.7213 4.71118Z" fill="#FF5D5D"/>
<path d="M36.005 54.5402C34.9268 54.5402 33.8581 54.1975 32.9517 53.5024C32.3983 53.074 32.2933 52.2742 32.7227 51.722C33.1521 51.1698 33.9535 51.0651 34.507 51.4935C35.3848 52.1695 36.6061 52.1695 37.4839 51.4935C40.7758 48.9419 47.1209 43.81 52.6264 38.0117C59.1433 31.1566 62.5783 25.3583 62.5783 21.2262C62.5974 12.8191 55.9278 5.98303 47.722 5.98303C44.0676 5.98303 40.5468 7.35406 37.8274 9.84856C36.7874 10.8007 35.213 10.8007 34.173 9.84856C31.4441 7.35406 27.9328 5.98303 24.2784 5.98303C16.0822 5.98303 9.41259 12.8191 9.41259 21.2357C9.41259 23.397 10.3477 26.0153 12.1797 29.0144C12.5422 29.6142 12.3609 30.3949 11.7598 30.7567C11.1587 31.1185 10.3763 30.9376 10.0137 30.3378C7.92411 26.9388 6.86499 23.873 6.86499 21.2357C6.86499 11.4291 14.6795 3.45044 24.2784 3.45044C28.5721 3.45044 32.6941 5.05949 35.8905 7.99197C35.9573 8.04909 36.0432 8.04909 36.1099 7.99197C39.3064 5.04997 43.4283 3.44092 47.722 3.44092C57.3209 3.44092 65.1354 11.4195 65.1354 21.2262C65.1354 26.0819 61.5478 32.3182 54.4775 39.7541C48.848 45.6762 42.3978 50.9032 39.0487 53.4929C38.1518 54.1975 37.0736 54.5402 36.005 54.5402Z" fill="black"/>
<path d="M20.5227 58.5246C21.6295 59.6481 23.1371 60.286 24.7115 60.286C26.4957 60.286 28.1846 59.4672 29.301 58.0771L30.0261 57.1631C30.1883 56.9631 30.3505 56.7537 30.5032 56.5537C32.9936 53.3261 35.0354 49.7652 36.6194 46.0044L37.4686 43.9955C39.1193 40.0824 38.1651 35.5599 35.0641 32.656C31.4001 29.2189 25.7801 28.9618 21.8204 32.0561L19.7689 33.6652L17.7175 32.0561C13.7577 28.9618 8.13773 29.2189 4.47376 32.656C1.37274 35.5599 0.418584 40.0824 2.06928 43.9955L2.91848 46.0044C4.50238 49.7652 6.54428 53.3166 9.03464 56.5537C9.19684 56.7632 9.34951 56.9631 9.51171 57.1631L10.2369 58.0771C11.3437 59.4767 13.0421 60.286 14.8264 60.286C16.4007 60.286 17.9179 59.6481 19.0151 58.5246C19.435 58.1057 20.1124 58.1057 20.5227 58.5246Z" fill="#A0E557"/>
<path d="M24.7115 61.5521C22.8796 61.5521 21.0953 60.8285 19.769 59.5718C18.4523 60.8381 16.668 61.5521 14.836 61.5521C12.651 61.5521 10.6091 60.5715 9.25417 58.8577L8.52901 57.9437C8.3668 57.7342 8.19506 57.5247 8.03285 57.3153C5.52341 54.0686 3.41472 50.4221 1.74495 46.4899L0.895745 44.481C-0.0202469 42.3197 -0.239704 39.968 0.246917 37.6829C0.733538 35.3884 1.89761 33.3318 3.60555 31.7228C5.59975 29.8567 8.19506 28.7522 10.9335 28.6285C13.6624 28.5047 16.3531 29.3616 18.5095 31.0468L19.7785 32.037L21.0476 31.0468C23.204 29.3616 25.8947 28.5047 28.6236 28.6285C31.3525 28.7522 33.9573 29.8471 35.9515 31.7228C37.6595 33.3318 38.8235 35.3884 39.3102 37.6829C39.7968 39.9775 39.5678 42.3292 38.6613 44.481L37.8121 46.4899C36.1519 50.4221 34.0337 54.0686 31.5242 57.3153C31.362 57.5247 31.1998 57.7342 31.0281 57.9437L30.3029 58.8577C28.9385 60.5715 26.8966 61.5521 24.7115 61.5521ZM21.4292 57.639C22.288 58.5149 23.4807 59.0196 24.7115 59.0196C26.1237 59.0196 27.4309 58.3912 28.2992 57.2867L29.0243 56.3727C29.1865 56.1728 29.3392 55.9728 29.4919 55.7729C31.8677 52.6976 33.8715 49.2415 35.4458 45.5092L36.295 43.5003C37.7358 40.1013 36.8866 36.112 34.1959 33.5794C30.9708 30.5517 26.0951 30.3327 22.6124 33.0557L20.5609 34.6648C20.103 35.0266 19.4541 35.0266 18.9961 34.6648L16.9447 33.0557C13.4525 30.3327 8.58626 30.5517 5.36121 33.5794C2.66094 36.112 1.82128 40.1013 3.26206 43.5003L4.11126 45.5092C5.68562 49.2415 7.68935 52.6976 10.0652 55.7729C10.2179 55.9728 10.3801 56.1728 10.5327 56.3727L11.2579 57.2867C12.1357 58.3912 13.4429 59.0196 14.8455 59.0196C16.0764 59.0196 17.2691 58.5149 18.1278 57.639C18.5668 57.1915 19.1583 56.944 19.7881 56.944C20.3987 56.944 20.9903 57.1915 21.4292 57.639Z" fill="black"/>
<path d="M19.7727 34.1868C19.0667 34.1868 18.5037 33.6156 18.5037 32.9205C18.5037 31.3115 17.874 29.7976 16.7385 28.6551L15.3741 27.3031C14.8779 26.808 14.8779 26.0083 15.3741 25.5036C15.8702 25.0086 16.6717 25.0086 17.1774 25.5036L18.5323 26.8556C20.1544 28.4742 21.0418 30.626 21.0418 32.911C21.0418 33.6251 20.4788 34.1868 19.7727 34.1868Z" fill="black"/>
<path d="M29.1196 42.8721H27.4116C23.1942 42.8721 19.7688 39.4541 19.7688 35.2458V33.5415H21.4767C25.6941 33.5415 29.1196 36.9596 29.1196 41.1678V42.8721Z" fill="#D8FB93"/>
<path d="M29.1195 44.1383H27.4116C22.4977 44.1383 18.4998 40.149 18.4998 35.2457V33.5414C18.4998 32.8369 19.0723 32.2751 19.7688 32.2751H21.4767C26.3906 32.2751 30.3886 36.2645 30.3886 41.1678V42.872C30.3886 43.5671 29.8256 44.1383 29.1195 44.1383ZM21.0474 34.8173V35.2457C21.0474 38.7494 23.9003 41.6057 27.4116 41.6057H27.8505V41.1773C27.8505 37.6736 24.9976 34.8268 21.4863 34.8268H21.0474V34.8173Z" fill="black"/>
<path d="M44.6355 34.8141C44.626 34.8141 44.6069 34.8141 44.5973 34.8141C44.0535 34.7951 43.5859 34.4333 43.4237 33.9191L38.6339 18.4284L36.5156 23.0652C36.3057 23.5222 35.8573 23.8078 35.3611 23.8078H26.7164C26.0103 23.8078 25.4474 23.2365 25.4474 22.5415C25.4474 21.8465 26.0199 21.2752 26.7164 21.2752H34.531L37.6988 14.3439C37.9182 13.8679 38.4144 13.5727 38.9392 13.6013C39.464 13.6394 39.922 13.9916 40.0746 14.4962L44.7596 29.6537L47.6411 22.094C47.8319 21.5989 48.2995 21.2752 48.8338 21.2752H56.9632C57.6693 21.2752 58.2323 21.8465 58.2323 22.5415C58.2323 23.2365 57.6598 23.8078 56.9632 23.8078H49.7021L45.8187 33.9953C45.6374 34.4904 45.1603 34.8141 44.6355 34.8141Z" fill="black"/>
<path d="M20.8261 23.8078C20.7879 23.8078 20.7402 23.8078 20.702 23.7983C20.6639 23.7983 20.6161 23.7888 20.578 23.7792C20.5016 23.7602 20.4158 23.7412 20.3394 23.7031C20.2631 23.6745 20.1868 23.6364 20.12 23.5888C20.0818 23.5698 20.0532 23.5412 20.0246 23.5126C19.9959 23.4841 19.9578 23.4555 19.9291 23.427C19.9005 23.3984 19.8719 23.3698 19.8433 23.3317C19.8146 23.3032 19.7956 23.2651 19.7669 23.227C19.7192 23.1604 19.6811 23.0842 19.6524 23.008C19.6238 22.9319 19.5952 22.8557 19.5761 22.77C19.5666 22.7319 19.5666 22.6843 19.557 22.6462C19.557 22.6081 19.5475 22.5605 19.5475 22.5225C19.5475 22.4844 19.5475 22.4368 19.557 22.3987C19.5666 22.3606 19.5666 22.313 19.5761 22.2749C19.5952 22.1892 19.6143 22.1131 19.6524 22.0369C19.6811 21.9607 19.7288 21.8846 19.7669 21.8179C19.786 21.7798 19.8146 21.7513 19.8433 21.7227C19.8719 21.6941 19.9005 21.656 19.9291 21.6275C19.9578 21.5989 19.9864 21.5704 20.0246 21.5418C20.0532 21.5132 20.0914 21.4942 20.12 21.4656C20.1868 21.418 20.2631 21.3799 20.3394 21.3514C20.4158 21.3228 20.5016 21.2942 20.578 21.2752C20.6161 21.2657 20.6639 21.2657 20.702 21.2562C20.7879 21.2466 20.8738 21.2466 20.9501 21.2562C20.9883 21.2657 21.036 21.2657 21.0741 21.2752C21.16 21.2942 21.2363 21.3133 21.3127 21.3514C21.389 21.3799 21.4653 21.418 21.5321 21.4656C21.5703 21.4847 21.5989 21.5132 21.6371 21.5418C21.6657 21.5704 21.7039 21.5989 21.7325 21.6275C21.7611 21.656 21.7898 21.6846 21.8184 21.7227C21.847 21.7513 21.8661 21.7893 21.8947 21.8179C21.9424 21.8846 21.9806 21.9607 22.0092 22.0369C22.0378 22.1131 22.0665 22.1892 22.0855 22.2749C22.0951 22.313 22.1046 22.3606 22.1046 22.3987C22.1046 22.4368 22.1142 22.4844 22.1142 22.5225C22.1142 22.5605 22.1142 22.6081 22.1046 22.6462C22.0951 22.6843 22.0951 22.7319 22.0855 22.77C22.0665 22.8557 22.0474 22.9319 22.0092 23.008C21.9806 23.0842 21.9424 23.1604 21.8947 23.227C21.8756 23.2651 21.847 23.2937 21.8184 23.3317C21.7898 23.3603 21.7611 23.3984 21.7325 23.427C21.7039 23.4555 21.6753 23.4841 21.6371 23.5126C21.6085 23.5412 21.5703 23.5603 21.5321 23.5888C21.4653 23.6364 21.389 23.6745 21.3127 23.7031C21.2363 23.7316 21.16 23.7602 21.0741 23.7792C21.036 23.7888 20.9883 23.7888 20.9501 23.7983C20.9024 23.8078 20.8642 23.8078 20.8261 23.8078Z" fill="black"/>
</g>
</svg>
