<svg width="47" height="65" viewBox="0 0 47 65" fill="none" xmlns="http://www.w3.org/2000/svg">
<path fill-rule="evenodd" clip-rule="evenodd" d="M0.955444 64.0355H16.4153L21.0482 56.9529C23.041 54.1097 23.2821 52.1931 23.2821 49.4768V38.726V32.6715C23.2821 31.0468 21.9494 29.7268 20.3374 29.7268C20.1343 29.7268 19.9439 29.7394 19.7535 29.7902L23.1171 17.0085C24.3103 13.2007 19.1824 11.6268 17.8877 15.955L12.1378 31.3768C11.1859 33.9027 8.58384 37.444 9.42157 41.4676L10.9066 50.6953C11.2239 53.767 9.99274 55.1632 8.74885 56.6863L0.955444 64.0355Z" fill="#FED2A4"/>
<path fill-rule="evenodd" clip-rule="evenodd" d="M21.9114 13.6067C21.9114 13.6067 16.5042 27.7592 15.4634 30.742C14.3972 33.8137 15.4507 35.2734 15.0446 37.3423C14.8922 38.1292 14.3972 38.6877 13.9149 39.462C12.2014 42.2925 15.1969 43.5745 16.0981 41.8102C16.9104 40.5028 17.38 39.2843 17.38 38.0912V32.6586C17.38 31.6559 17.8878 30.7547 18.6747 30.2216C18.992 30.0058 19.3474 29.8535 19.7409 29.7647L23.1045 16.983C23.6249 15.3456 22.9395 14.1144 21.9114 13.6067Z" fill="#FFBD86"/>
<path fill-rule="evenodd" clip-rule="evenodd" d="M17.9893 55.4169L12.7217 64.0353H16.4027L21.0355 56.9527C23.0283 54.1095 23.2695 52.1929 23.2695 49.4766V38.7258V32.6713C23.2695 31.0466 21.9367 29.7266 20.3247 29.7266C20.2486 29.7266 20.1597 29.7266 20.0836 29.7393C20.1724 30.0185 20.2232 30.3104 20.2232 30.6151V36.6822V47.4331C20.2232 50.1366 19.982 52.5737 17.9893 55.4169Z" fill="#FFBD86"/>
<path fill-rule="evenodd" clip-rule="evenodd" d="M45.6089 64.0355H30.149L25.5161 56.9529C23.5234 54.1097 23.2822 52.1931 23.2822 49.4768V38.726V32.6715C23.2822 31.0468 24.615 29.7268 26.2269 29.7268C26.43 29.7268 26.6204 29.7394 26.8235 29.7902L23.4599 17.0085C22.2668 13.2007 27.3947 11.6268 28.6894 15.955L34.4519 31.3768C35.4039 33.9027 38.0059 37.444 37.1682 41.4676L35.6831 50.6953C35.3658 53.767 36.597 55.1632 37.8409 56.6863L45.6089 64.0355Z" fill="#FED2A4"/>
<path fill-rule="evenodd" clip-rule="evenodd" d="M34.0203 41.3533L32.5353 50.5937C32.2179 53.6654 33.4491 55.9628 34.693 57.4859L41.6233 64.0354H45.6089L37.8282 56.6863C36.5716 55.1631 35.3531 53.7669 35.6704 50.6953L37.1554 41.4676C38.0059 37.4439 35.3911 33.9026 34.4392 31.3768L28.6766 15.955C27.877 13.2641 25.605 12.8579 24.2722 13.8353C24.8053 14.2541 25.2623 14.9142 25.5415 15.8534L31.2914 31.2625C32.2433 33.8011 34.858 37.3297 34.0203 41.3533Z" fill="#FFBD86"/>
<path fill-rule="evenodd" clip-rule="evenodd" d="M26.3792 33.1409V38.5735C26.3792 39.7539 26.8489 40.9851 27.6612 42.2925C28.4736 43.5998 30.4663 42.8763 30.4663 41.8101C29.654 40.5028 29.1844 39.2843 29.1844 38.0911V32.6586C29.1844 31.237 28.1689 30.0439 26.8235 29.7773C26.6331 29.7393 26.43 29.7139 26.2269 29.7139C25.5288 29.7139 24.8942 29.955 24.3865 30.3612C25.5415 30.7674 26.3792 31.859 26.3792 33.1409Z" fill="#FFBD86"/>
<path d="M23.1299 8.27597C23.6503 8.27597 24.0818 7.84442 24.0818 7.32401V0.952207C24.0818 0.431801 23.6503 0.000244141 23.1299 0.000244141C22.6095 0.000244141 22.1779 0.431801 22.1779 0.952207V7.32401C22.1779 7.85711 22.5968 8.27597 23.1299 8.27597Z" fill="black"/>
<path d="M12.8995 9.59602C13.0899 9.8118 13.3564 9.92603 13.6103 9.92603C13.8388 9.92603 14.0545 9.84988 14.2322 9.68487C14.6257 9.34216 14.6638 8.73291 14.3211 8.33943L10.1071 3.54154C9.76436 3.14806 9.15511 3.10998 8.76163 3.45269C8.36815 3.79539 8.33007 4.40465 8.67278 4.79813L12.8995 9.59602Z" fill="black"/>
<path d="M11.8333 50.5428L10.6529 43.2317C10.5641 42.7113 10.0817 42.3559 9.56133 42.4448C9.04092 42.5336 8.68552 43.016 8.77437 43.5364L9.95481 50.822C10.2087 53.3987 9.28208 54.5284 8.10165 55.9626L8.03819 56.0388L0.295559 63.3499C-0.0852261 63.7053 -0.0979193 64.3145 0.25748 64.6953C0.447873 64.8984 0.701729 64.9999 0.955586 64.9999C1.18406 64.9999 1.42522 64.9111 1.60292 64.7461L9.38363 57.3969C9.40901 57.3715 9.44709 57.3335 9.47248 57.3081L9.57402 57.1812C10.7925 55.6834 12.1887 53.9953 11.846 50.6063C11.8333 50.5809 11.8333 50.5555 11.8333 50.5428Z" fill="black"/>
<path d="M36.229 41.2644C36.229 41.2771 36.229 41.2898 36.2163 41.3025L35.8863 43.3206C35.7974 43.841 36.1528 44.3234 36.6732 44.4122C36.724 44.4249 36.7748 44.4249 36.8255 44.4249C37.2825 44.4249 37.6887 44.0949 37.7648 43.6253L38.0821 41.6325C38.7802 38.2689 37.3459 35.3242 36.1909 32.9506C35.8482 32.2525 35.5309 31.6052 35.3151 31.034L29.5652 15.6503C29.0575 13.9748 27.9533 12.8198 26.5443 12.4897C25.3512 12.2105 24.0946 12.5786 23.2569 13.4544C22.4192 12.5786 21.1753 12.2105 19.9695 12.4897C18.5606 12.8198 17.4563 13.9748 16.9486 15.6503L11.2114 31.034C10.9956 31.6052 10.6783 32.2652 10.3356 32.9506C9.18055 35.3242 7.74626 38.2689 8.44436 41.6325L8.76169 43.6126C8.83784 44.0822 9.24401 44.4122 9.70095 44.4122C9.75173 44.4122 9.8025 44.4122 9.85327 44.3995C10.3737 44.3107 10.7291 43.8284 10.6402 43.3079L10.3229 41.3025C10.3229 41.2898 10.3229 41.2771 10.3102 41.2644C9.73903 38.5354 10.9575 36.0096 12.0491 33.7883C12.4045 33.0521 12.7472 32.354 12.9884 31.7067L18.7383 16.2849C18.7509 16.2595 18.7509 16.2468 18.7636 16.2214C19.0683 15.1806 19.6521 14.5206 20.401 14.3429C20.9468 14.216 21.518 14.381 21.8988 14.7745C22.3176 15.2314 22.4192 15.9168 22.1653 16.7165C22.1653 16.7292 22.1526 16.7418 22.1526 16.7545L18.9286 29.0158C17.4563 29.5743 16.4028 30.9959 16.4028 32.6587V38.0912C16.4028 39.0305 16.0347 40.084 15.2604 41.3025C14.9812 41.7467 15.1208 42.3306 15.565 42.6098C15.7174 42.7114 15.8951 42.7495 16.0728 42.7495C16.3901 42.7495 16.6947 42.5971 16.8851 42.3052C17.8498 40.7694 18.3067 39.3859 18.3067 38.0785V32.646C18.3067 31.5544 19.2079 30.6532 20.2995 30.6532C21.4037 30.6532 22.2922 31.5417 22.2922 32.646V38.7004V49.4513C22.2922 51.8629 22.1526 53.6526 20.236 56.3816C20.236 56.3943 20.2233 56.3943 20.2233 56.407L15.5904 63.4896C15.2985 63.9338 15.4254 64.5177 15.8697 64.8096C16.0347 64.9112 16.2124 64.9619 16.3901 64.9619C16.6947 64.9619 16.9993 64.8096 17.1897 64.5304L21.8226 57.4605C22.4573 56.5593 22.9269 55.7342 23.2696 54.9473C23.6123 55.7342 24.0819 56.5593 24.7039 57.4605L29.3368 64.5304C29.5145 64.8096 29.8191 64.9619 30.1364 64.9619C30.3141 64.9619 30.4918 64.9112 30.6568 64.8096C31.1011 64.5177 31.2153 63.9338 30.9361 63.4896L26.3032 56.407C26.3032 56.3943 26.2905 56.3943 26.2905 56.3816C24.3739 53.6526 24.2343 51.8629 24.2343 49.4513V38.7004V32.646C24.2343 31.5544 25.1354 30.6532 26.227 30.6532C27.3186 30.6532 28.2198 31.5417 28.2198 32.646V38.0785C28.2198 39.3859 28.6894 40.7694 29.6414 42.3052C29.8191 42.5971 30.1364 42.7495 30.4537 42.7495C30.6314 42.7495 30.7964 42.6987 30.9615 42.6098C31.4057 42.3306 31.5453 41.7467 31.2661 41.3025C30.5045 40.0713 30.1237 39.0305 30.1237 38.0912V32.6587C30.1237 30.9959 29.0702 29.5743 27.5979 29.0158L24.3866 16.7545C24.3866 16.7418 24.3739 16.7292 24.3739 16.7165C24.12 15.9295 24.2216 15.2314 24.6404 14.7745C25.0085 14.381 25.5797 14.2033 26.1255 14.3429C26.8744 14.5206 27.4582 15.1806 27.7629 16.2214C27.7629 16.2468 27.7756 16.2595 27.7882 16.2849L33.5508 31.7067C33.792 32.3667 34.1347 33.0521 34.4901 33.7883C35.5689 36.0096 36.8002 38.5354 36.229 41.2644ZM25.5924 28.8254C24.6785 28.9777 23.8662 29.4474 23.2823 30.1201C22.6984 29.4474 21.8988 28.9777 20.9849 28.8254L23.295 20.0674L25.5924 28.8254Z" fill="black"/>
<path d="M46.269 63.3374L38.5263 56.0263L38.4756 55.9628C37.2951 54.5285 36.3686 53.3862 36.6224 50.8095L37.8409 43.2192C37.9298 42.6988 37.5744 42.2165 37.054 42.1276C36.5336 42.0388 36.0512 42.3942 35.9624 42.9146L34.7312 50.5303C34.7312 50.543 34.7312 50.5684 34.7185 50.5811C34.3758 53.97 35.772 55.6582 36.9905 57.1559L37.0794 57.2702C37.1047 57.2956 37.1301 57.3336 37.1682 57.359L44.9489 64.7082C45.1266 64.8859 45.3678 64.962 45.5962 64.962C45.8501 64.962 46.104 64.8605 46.2944 64.6574C46.6624 64.302 46.6498 63.7055 46.269 63.3374Z" fill="black"/>
<path d="M3.26565 16.958L9.49783 18.3796C9.57399 18.3923 9.63745 18.405 9.71361 18.405C10.1452 18.405 10.5386 18.1003 10.6402 17.6688C10.7544 17.1611 10.4371 16.6406 9.92939 16.5264L3.68451 15.1048C3.1768 14.9906 2.6564 15.3079 2.54216 15.8156C2.42792 16.336 2.74525 16.8437 3.26565 16.958Z" fill="black"/>
<path d="M32.0276 9.68487C32.2053 9.84988 32.4338 9.92603 32.6495 9.92603C32.9161 9.92603 33.1826 9.8118 33.3603 9.59602L37.5744 4.79813C37.9171 4.40465 37.879 3.79539 37.4855 3.45269C37.092 3.10998 36.4828 3.14806 36.1401 3.54154L31.926 8.33943C31.5833 8.73291 31.6214 9.32947 32.0276 9.68487Z" fill="black"/>
<path d="M35.6197 17.6559C35.7213 18.1001 36.1147 18.3921 36.5463 18.3921C36.6224 18.3921 36.6859 18.3794 36.7621 18.3667L42.9942 16.9451C43.502 16.8309 43.832 16.3231 43.705 15.8027C43.5908 15.295 43.0831 14.965 42.5627 15.0919L36.3305 16.5135C35.8228 16.6405 35.5055 17.1482 35.6197 17.6559Z" fill="black"/>
</svg>
