<svg width="216" height="66" viewBox="0 0 216 66" fill="none" xmlns="http://www.w3.org/2000/svg">
<path d="M0 30.7009H1.9665L6.79872 17.1081H4.28269V13.3476H16.8628V17.1081H14.4058L19.238 30.7009H21.2318V34.4614H13.0479V30.7009H15.187L14.2015 27.7489H6.97129L5.98578 30.7009H8.18389V34.4614H0V30.7009ZM13.0434 24.3382L10.5864 17.1353L8.12939 24.3382H13.0479H13.0434Z" fill="#FF6F00"/>
<path d="M23.1393 30.6692H25.2239V17.1035H23.1393V13.3431H29.561L38.7577 27.7444V17.099H36.5868V13.3386H44.7162V17.099H42.6317V34.4523H38.6396L29.1523 19.556V30.6601H31.3232V34.4477H23.1393V30.6601V30.6692Z" fill="#FF6F00"/>
<path d="M45.0614 30.7009H47.0279L51.8555 17.1081H49.3395V13.3476H61.9196V17.1081H59.4626L64.2949 30.7009H66.2886V34.4614H58.1047V30.7009H60.2438L59.2583 27.7489H52.0281L51.0426 30.7009H53.2407V34.4614H45.0568V30.7009H45.0614ZM58.1047 24.3382L55.6477 17.1353L53.1908 24.3382H58.1093H58.1047ZM57.21 6.69426H61.2884L56.9194 11.64H53.9129L57.21 6.69426Z" fill="#FF6F00"/>
<path d="M68.2006 30.6692H70.2851V17.1035H68.2006V13.3431H76.5025V17.1035H74.3317V21.9312H82.5473V17.1035H80.3765V13.3431H88.6467V17.1035H86.5621V30.6692H88.6467V34.4568H80.3765V30.6692H82.5473V25.6371H74.3317V30.6692H76.5025V34.4568H68.2006V30.6692Z" fill="#FF6F00"/>
<path d="M92.6115 26.2729V17.1035H90.5859V13.3431H98.9152V17.1035H96.7443V26.3274C96.7443 28.9615 98.4519 30.7827 101.027 30.7827C103.602 30.7827 105.337 29.0206 105.337 26.3274V17.1035H103.198V13.3431H111.5V17.1035H109.474V26.2729C109.474 31.741 106.204 34.7475 101.027 34.7475C95.8496 34.7475 92.6115 31.6229 92.6115 26.2729Z" fill="#FF6F00"/>
<path d="M111.441 30.7009H113.407L118.24 17.1081H115.723V13.3476H128.304V17.1081H125.847L130.679 30.7009H132.673V34.4614H124.489V30.7009H126.628L125.642 27.7489H118.412L117.427 30.7009H119.625V34.4614H111.441V30.7009ZM124.484 24.3382L122.027 17.1353L119.57 24.3382H124.489H124.484Z" fill="#FF6F00"/>
<path d="M133.104 23.9022C133.104 17.7439 137.732 13.057 143.373 13.057C146.379 13.057 148.377 14.1833 149.213 16.2951V13.3431H153.06V21.0638H149.331C148.695 18.4614 146.901 17.0127 143.75 17.0127C139.962 17.0127 137.301 20.051 137.301 23.8977C137.301 27.7444 140.048 30.6646 143.895 30.6646C146.788 30.6646 148.841 29.0751 149.881 26.7907L153.609 28.7844C151.815 32.3132 148.346 34.7429 143.922 34.7429C137.559 34.7429 133.104 29.8835 133.104 23.8977V23.9022Z" fill="#FF6F00"/>
<path d="M82.6972 51.5058L82.8789 52.6548V54.3897H79.9042V48.2404H82.6972C83.551 50.2433 85.4676 51.5966 87.5158 51.5966C89.1372 51.5966 89.9955 50.8745 89.9955 49.6574C89.9955 48.0588 87.8564 47.809 85.6038 47.2912C83.0151 46.7508 80.0177 45.9379 80.0177 42.2456C80.0177 39.7659 81.9342 37.7176 84.9044 37.7176C86.9754 37.7176 88.8011 38.5306 89.6367 40.2609L89.5232 39.5615V37.9402H92.4298V43.3673H89.773C89.0055 41.587 87.3387 40.5289 85.4494 40.5289C83.9416 40.5289 83.2649 41.251 83.2649 42.2864C83.2649 43.7034 85.1588 44.1349 87.3205 44.5845C90.813 45.352 93.2882 46.1831 93.2882 49.6301C93.2882 52.3324 91.417 54.585 87.9518 54.585C85.7673 54.585 83.6737 53.5041 82.7018 51.5013L82.6972 51.5058Z" fill="black"/>
<path d="M94.9958 48.3267C94.9958 44.7889 97.7435 41.9731 101.372 41.9731C105.001 41.9731 107.658 44.6072 107.658 48.2132V49.4076H98.0387C98.4202 50.9608 99.7055 51.9509 101.486 51.9509C102.903 51.9509 103.875 51.2969 104.483 50.3296L107.049 51.8374C105.832 53.5495 104.12 54.6304 101.44 54.6304C97.5437 54.6304 95.0004 51.8601 95.0004 48.3222L94.9958 48.3267ZM98.125 46.9325H104.547C104.143 45.4474 102.971 44.6344 101.372 44.6344C99.7736 44.6344 98.6246 45.5337 98.1295 46.9325H98.125Z" fill="black"/>
<path d="M108.984 51.4604H110.337V45.1976H108.984V42.2229H113.398V44.5436C114.029 42.9677 115.356 41.9777 117.204 41.9777C119.884 41.9777 121.55 43.758 121.55 46.9098V51.4604H122.904V54.3897H117.027V51.4604H118.38V47.4048C118.38 45.7154 117.549 44.7026 115.946 44.7026C114.461 44.7026 113.448 45.7608 113.448 47.6773V51.4604H114.847V54.3897H108.988V51.4604H108.984Z" fill="black"/>
<path d="M124.23 51.4604H125.874V45.1976H124.298V42.2229H128.985V51.4559H130.561V54.3852H124.23V51.4559V51.4604ZM127.336 36.5278C128.576 36.5278 129.453 37.4043 129.453 38.6441C129.453 39.884 128.576 40.7378 127.336 40.7378C126.096 40.7378 125.265 39.8386 125.265 38.6441C125.265 37.4497 126.119 36.5278 127.336 36.5278Z" fill="black"/>
<path d="M131.528 48.304C131.528 44.7889 134.298 41.9731 137.95 41.9731C141.601 41.9731 144.39 44.7889 144.39 48.304C144.39 51.8192 141.619 54.635 137.95 54.635C134.28 54.635 131.528 51.7965 131.528 48.304ZM141.256 48.2859C141.256 46.4147 139.794 44.9296 137.968 44.9296C136.142 44.9296 134.68 46.4147 134.68 48.2859C134.68 50.157 136.12 51.6648 137.968 51.6648C139.816 51.6648 141.256 50.157 141.256 48.2859Z" fill="black"/>
<path d="M145.807 51.4604H147.16V45.1976H145.807V42.2229H150.198V45.0387C150.625 43.0358 151.865 41.9958 153.668 41.9958H154.163V45.4656H153.464C151.098 45.4656 150.221 46.0287 150.221 48.1224V51.4559H151.661V54.3852H145.802V51.4559L145.807 51.4604Z" fill="black"/>
<path d="M193.443 5.4317C194.365 4.81405 195.364 4.37806 196.445 4.12827C196.777 4.05107 197.113 4.00111 197.444 3.93753C197.535 3.93753 197.626 3.93753 197.712 3.92844C198.916 3.83307 200.115 3.85124 201.314 4.03744C206.078 4.78226 209.666 8.67892 210.006 13.4975C210.02 13.7064 210.093 13.8427 210.265 13.9608C211.242 14.6284 212.109 15.4186 212.863 16.336C214.348 18.1481 215.261 20.1963 215.483 22.5398C215.502 22.7078 215.452 22.894 215.574 23.0439V24.0703C215.433 24.3655 215.479 24.6925 215.433 25.0058C215.093 27.4446 214.035 29.5338 212.391 31.3413C212.132 31.6274 211.864 31.9045 211.569 32.1542C211.464 32.2405 211.419 32.3314 211.437 32.4812C211.973 36.8139 209.72 40.6833 205.592 42.2274C201.1 43.9078 197.049 42.9813 193.548 39.7477C191.304 37.6768 190.142 35.029 189.76 32.0225C189.406 29.1977 189.815 26.5 191.209 23.9976C192.771 21.1955 195.133 19.338 198.148 18.2934C200.383 17.5168 202.685 17.3215 205.033 17.5259C205.065 17.5259 205.097 17.535 205.179 17.5486C204.852 17.7484 204.556 17.921 204.298 18.139C203.248 19.02 202.722 20.1872 202.449 21.4952C202.263 22.3853 202.286 23.3027 202.127 24.1974C201.863 25.6916 201.355 27.0768 200.319 28.2212C199.225 29.4384 197.821 30.0969 196.245 30.4284C195.878 30.5057 195.505 30.5692 195.128 30.6101C194.969 30.6283 194.906 30.601 194.892 30.4239C194.638 27.0859 195.641 24.1883 197.926 21.7404C198.516 21.1092 199.166 20.5415 199.851 20.0146C199.929 19.9556 200.001 19.8966 200.083 19.833C200.01 19.7921 199.974 19.8012 199.929 19.8239C198.098 20.7504 196.432 21.8949 195.178 23.5571C194.115 24.9649 193.543 26.559 193.421 28.3121C193.284 30.2967 193.557 32.236 194.311 34.0708C195.442 36.8093 197.517 38.4852 200.437 38.9847C202.408 39.3208 204.279 38.9439 205.851 37.6041C207.2 36.4506 207.717 34.9473 207.604 33.1988C207.554 32.4494 207.359 31.7319 207.163 31.0098C207.109 30.8099 207.145 30.6782 207.318 30.5511C208.231 29.8789 209.13 29.1886 209.847 28.2985C210.955 26.9178 211.614 25.3646 211.619 23.5752C211.628 21.4452 210.778 19.674 209.284 18.1889C208.408 17.317 207.386 16.6584 206.291 16.1044C206.128 16.0226 206.105 15.9227 206.11 15.7683C206.128 15.0235 206.169 14.2787 206.078 13.5338C205.742 10.8362 204.052 8.78791 201.564 8.07943C199.511 7.49811 197.49 7.5844 195.591 8.67438C194.724 9.17395 194.106 9.93693 193.534 10.7408C192.894 11.64 192.335 12.5983 191.631 13.4566C190.305 15.0825 188.738 16.3769 186.731 17.0717C185.182 17.6076 183.593 17.7166 181.971 17.5531C181.876 17.544 181.776 17.535 181.676 17.5395C181.953 17.6894 182.257 17.7666 182.562 17.8483C182.875 17.9346 183.188 18.0073 183.506 18.0618C185.523 18.4206 187.462 18.1935 189.301 17.2715C190.373 16.7311 191.336 16.0226 192.212 15.2006C192.267 15.1506 192.321 15.1052 192.376 15.0598C192.39 15.078 192.408 15.0916 192.421 15.1098C191.89 16.336 191.15 17.426 190.196 18.3524C188.847 19.6695 187.262 20.5642 185.382 20.8775C182.639 21.3317 180.164 20.6732 177.943 19.0155C176.317 17.8029 175.168 16.2179 174.378 14.3649C174.346 14.2923 174.301 14.2242 174.323 14.1106C174.564 14.1787 174.8 14.2514 175.041 14.315C176.158 14.6147 177.284 14.7146 178.42 14.3967C179.092 14.2105 179.669 13.8608 180.196 13.4158C181.472 12.3485 182.902 11.5946 184.569 11.3448C186.086 11.1177 187.539 11.3811 188.938 11.9761C189.179 12.0805 189.288 12.0715 189.397 11.8171C189.724 11.0587 190.073 10.3139 190.414 9.55998C191.132 7.97043 192.085 6.54892 193.43 5.41353L193.443 5.4317Z" fill="#FD6F01"/>
<path d="M192.385 15.0734C192.408 15.0553 192.435 15.0371 192.458 15.0235C192.49 15.0689 192.467 15.0961 192.431 15.1234C192.417 15.1052 192.399 15.0916 192.385 15.0734Z" fill="#FD6F01"/>
<path d="M204.597 55.3662C203.648 55.0074 202.726 54.5986 201.822 54.1309C201.137 53.7766 200.428 53.4451 199.824 52.9682C198.525 51.9373 197.667 50.6021 197.276 48.9807C196.899 47.423 196.981 45.8834 197.417 44.3483C197.444 44.2484 197.535 44.1394 197.331 44.094C195.877 43.7534 194.533 43.1721 193.248 42.4091C192.031 41.6915 190.904 40.8786 189.951 39.834C188.956 38.744 188.211 37.5178 187.83 36.0736C187.553 35.0336 187.398 33.9845 187.294 32.9172C187.289 32.8491 187.317 32.7583 187.248 32.7174C187.171 32.672 187.117 32.7492 187.062 32.7901C186.286 33.3532 185.505 33.9209 184.732 34.4886C183.851 35.1335 182.893 35.6013 181.817 35.8147C179.791 36.2099 177.984 35.7693 176.449 34.3614C175.84 33.8074 175.4 33.108 174.905 32.4585C174.746 32.2451 174.628 32.2087 174.387 32.3359C173.297 32.9172 172.202 33.4849 170.958 33.712C168.442 34.1707 166.198 32.9536 165.335 30.5465C164.6 28.4892 164.718 26.4273 165.585 24.4291C166.103 23.2346 167.016 22.4171 168.274 22.0311C169.605 21.6224 170.922 21.7995 172.225 22.1764C172.366 22.2173 172.352 22.2854 172.311 22.3944C172.198 22.7078 172.134 23.0348 172.098 23.3663C171.93 24.8333 172.284 26.1185 173.36 27.1812C174.4 28.2076 175.654 28.8707 177.016 29.3385C179.192 30.0833 180.595 31.5548 181.272 33.7393C181.308 33.8573 181.317 33.9936 181.413 34.1071C181.44 34.0753 181.458 34.0572 181.472 34.0345C182.026 32.999 182.512 31.9272 182.852 30.8009C183.275 29.3975 183.461 27.976 183.225 26.5182C182.911 24.588 181.871 23.1075 180.354 21.9312C178.915 20.8185 177.271 20.1191 175.545 19.5877C175.404 19.5423 175.268 19.4742 175.059 19.4833C178.184 21.5951 180.177 24.3428 180.336 28.1895C180.259 28.026 180.205 27.8488 180.145 27.6763C179.446 25.6144 178.243 23.8841 176.68 22.3899C174.759 20.5551 172.552 19.2244 169.9 18.7612C167.874 18.4069 165.98 18.7203 164.318 20.0147C163.219 20.8685 162.474 21.9857 161.938 23.2573C161.829 23.5117 161.729 23.7705 161.607 24.0657C161.552 23.9658 161.516 23.9113 161.489 23.8568C160.063 20.9275 160.085 18.0391 161.838 15.2506C163.492 12.6255 165.908 11.3902 169.01 11.4947C169.695 11.5174 170.368 11.64 171.044 11.7127C171.203 11.7308 171.285 11.6945 171.33 11.5219C171.426 11.1404 171.544 10.7635 171.648 10.382C172.711 6.57164 175.958 4.93213 179.383 5.36812C180.686 5.53162 181.894 5.95399 183.061 6.53076C183.797 6.89409 183.792 6.87592 184.369 6.27189C185.981 4.57335 187.925 3.71954 190.291 3.99657C191.49 4.13736 192.562 4.58698 193.448 5.43171C194.37 4.81405 195.369 4.37806 196.45 4.12828C196.781 4.05107 197.117 4.00111 197.449 3.93753C196.127 2.22082 194.42 1.06272 192.349 0.43599C191.636 0.217995 190.904 0.0817481 190.155 0.0499572C190.114 0.0499572 190.064 0.0590403 190.051 0H189.942C189.637 0.0635818 189.329 0.0635818 189.024 0H188.806C188.788 0.0772065 188.724 0.0499572 188.675 0.0544987C186.69 0.199829 184.896 0.876521 183.279 2.03008C183.048 2.19357 182.866 2.22536 182.593 2.13453C180.609 1.4533 178.565 1.19897 176.485 1.53051C172.902 2.10274 170.318 4.07378 168.655 7.28012C168.546 7.48449 168.428 7.55716 168.201 7.5617C167.334 7.57532 166.48 7.68886 165.644 7.9114C161.507 9.01046 158.787 11.6809 157.306 15.6184C156.211 18.5341 156.325 21.4816 157.438 24.3882C158.183 26.332 159.35 27.9942 160.848 29.4338C160.985 29.561 161.125 29.6791 161.162 29.888C161.357 30.978 161.666 32.0225 162.179 33.0171C163.174 34.9473 164.681 36.3098 166.671 37.1227C168.851 38.0129 171.062 37.8857 173.256 37.1409C173.474 37.0682 173.615 37.1 173.778 37.2544C174.537 37.9674 175.395 38.5397 176.344 38.962C179.001 40.1338 181.685 40.1383 184.387 39.121C184.614 39.0347 184.687 39.0665 184.742 39.3027C184.778 39.4571 184.823 39.6115 184.86 39.7659C183.034 51.4877 156.071 52.7956 156.071 52.7956C173.805 55.1391 182.716 52.1598 187.058 49.2941C187.058 50.0843 186.999 50.8745 186.844 51.6693C186.572 53.0454 186.027 54.2853 185.009 55.2844C184.555 55.7295 184.029 56.0792 183.429 56.388C183.493 56.4062 183.515 56.4153 183.538 56.4153C184.95 56.447 186.336 56.2926 187.694 55.893C188.988 55.5115 190.164 54.9256 191.1 53.9219C191.636 53.3452 192.008 52.6821 192.258 51.9373C195.964 54.7122 200.124 55.8294 204.706 55.4933C204.697 55.3752 204.629 55.3889 204.584 55.3707L204.597 55.3662Z" fill="black"/>
<path d="M82.0569 58.6906H82.888L84.8545 64.1132H84.0507L83.5011 62.4873H81.3575L80.7717 64.1132H80.0178L82.0615 58.6906H82.0569ZM83.265 61.8924L82.443 59.4944L81.5664 61.8924H83.265Z" fill="black"/>
<path d="M85.3768 60.1757H86.0262V60.6979C86.1579 60.5163 86.3032 60.38 86.4622 60.2801C86.6847 60.1302 86.9527 60.0576 87.2524 60.0576C87.702 60.0576 88.0835 60.2302 88.3969 60.5708C88.7103 60.9159 88.8692 61.4064 88.8692 62.0422C88.8692 62.9051 88.6422 63.5183 88.1925 63.8861C87.9064 64.1177 87.5703 64.2358 87.1934 64.2358C86.8937 64.2358 86.6439 64.1722 86.4395 64.0405C86.3214 63.9679 86.1897 63.8407 86.0444 63.659V65.68H85.3813V60.1666L85.3768 60.1757ZM87.8792 63.2776C88.0835 63.0187 88.188 62.6281 88.188 62.1149C88.188 61.8015 88.1426 61.529 88.0517 61.302C87.8792 60.866 87.5613 60.648 87.1026 60.648C86.6439 60.648 86.326 60.8796 86.1534 61.3383C86.0625 61.5835 86.0171 61.8969 86.0171 62.2739C86.0171 62.5781 86.0625 62.837 86.1534 63.055C86.326 63.4638 86.6439 63.6681 87.1026 63.6681C87.4159 63.6681 87.6703 63.5364 87.8792 63.2776Z" fill="black"/>
<path d="M89.6549 60.1575H90.2862V60.8388C90.3361 60.707 90.4633 60.5435 90.6677 60.3528C90.8675 60.1621 91.1037 60.0667 91.3671 60.0667C91.3807 60.0667 91.3989 60.0667 91.4307 60.0667C91.4624 60.0667 91.5124 60.0758 91.5805 60.0803V60.7797C91.5397 60.7706 91.5033 60.7661 91.4715 60.7661C91.4397 60.7661 91.4034 60.7661 91.3625 60.7661C91.0265 60.7661 90.7721 60.8751 90.5905 61.0885C90.4088 61.302 90.3225 61.5518 90.3225 61.8333V64.1087H89.6594V60.153L89.6549 60.1575Z" fill="black"/>
<path d="M94.5961 60.2665C94.8595 60.3982 95.0593 60.5708 95.1956 60.7797C95.3273 60.9795 95.4136 61.2112 95.459 61.4791C95.4999 61.6608 95.518 61.9514 95.518 62.3511H92.6432C92.6569 62.7553 92.7477 63.0777 92.9248 63.3184C93.1019 63.5591 93.3744 63.6818 93.7423 63.6818C94.0874 63.6818 94.3599 63.5682 94.5643 63.3366C94.6778 63.2049 94.7596 63.0505 94.8095 62.8734H95.4635C95.4454 63.0187 95.3909 63.1822 95.291 63.3593C95.1956 63.5364 95.0866 63.6818 94.964 63.7953C94.7641 63.9906 94.5143 64.1268 94.2191 64.195C94.0602 64.2358 93.8831 64.254 93.6787 64.254C93.1882 64.254 92.7749 64.0769 92.4343 63.7181C92.0937 63.3593 91.9257 62.8597 91.9257 62.2148C91.9257 61.5699 92.0982 61.0658 92.4389 60.6662C92.7795 60.2711 93.2291 60.0712 93.7832 60.0712C94.0602 60.0712 94.3327 60.1393 94.5961 60.2665ZM94.8368 61.8197C94.8096 61.5336 94.746 61.302 94.6506 61.1294C94.4689 60.8115 94.1692 60.648 93.7468 60.648C93.4425 60.648 93.1882 60.757 92.9838 60.9795C92.7795 61.2021 92.6705 61.4791 92.6569 61.8197H94.8368Z" fill="black"/>
<path d="M96.3628 60.1575H96.9941V60.7207C97.1803 60.489 97.3801 60.321 97.589 60.2211C97.7979 60.1212 98.0295 60.0712 98.2884 60.0712C98.8516 60.0712 99.2285 60.2665 99.4238 60.6571C99.5328 60.8705 99.5873 61.1794 99.5873 61.5745V64.1087H98.9106V61.6154C98.9106 61.3747 98.8743 61.1794 98.8016 61.034C98.6835 60.7888 98.4701 60.6662 98.1613 60.6662C98.0023 60.6662 97.8751 60.6843 97.7752 60.7161C97.5936 60.7706 97.4346 60.8796 97.2938 61.0431C97.1848 61.1748 97.1122 61.3065 97.0758 61.4473C97.044 61.5881 97.0259 61.7834 97.0259 62.0423V64.1132H96.3628V60.1575Z" fill="black"/>
<path d="M102.739 60.2801C102.857 60.3528 102.989 60.4845 103.139 60.6661V58.6678H103.779V64.1086H103.18V63.5591C103.025 63.8044 102.844 63.9769 102.63 64.0859C102.421 64.1949 102.176 64.2494 101.904 64.2494C101.463 64.2494 101.086 64.0632 100.764 63.6954C100.441 63.3229 100.282 62.8325 100.282 62.2148C100.282 61.638 100.428 61.1385 100.723 60.7161C101.018 60.2937 101.436 60.0848 101.981 60.0848C102.281 60.0848 102.535 60.1484 102.739 60.2756V60.2801ZM101.254 63.2457C101.431 63.5319 101.717 63.6726 102.112 63.6726C102.417 63.6726 102.671 63.5409 102.866 63.2775C103.062 63.0141 103.162 62.6326 103.162 62.1376C103.162 61.6426 103.062 61.2702 102.857 61.0295C102.653 60.7888 102.403 60.6707 102.103 60.6707C101.772 60.6707 101.499 60.7978 101.295 61.0567C101.086 61.311 100.986 61.688 100.986 62.1876C100.986 62.6099 101.077 62.9642 101.254 63.2503V63.2457Z" fill="black"/>
<path d="M107.213 60.2665C107.476 60.3982 107.676 60.5708 107.812 60.7797C107.944 60.9795 108.03 61.2112 108.075 61.4791C108.116 61.6608 108.134 61.9514 108.134 62.3511H105.26C105.273 62.7553 105.364 63.0777 105.541 63.3184C105.718 63.5591 105.991 63.6818 106.359 63.6818C106.704 63.6818 106.976 63.5682 107.181 63.3366C107.294 63.2049 107.376 63.0505 107.426 62.8734H108.08C108.062 63.0187 108.007 63.1822 107.907 63.3593C107.812 63.5364 107.703 63.6818 107.58 63.7953C107.381 63.9906 107.131 64.1268 106.836 64.195C106.677 64.2358 106.5 64.254 106.295 64.254C105.805 64.254 105.391 64.0769 105.051 63.7181C104.71 63.3593 104.542 62.8597 104.542 62.2148C104.542 61.5699 104.715 61.0658 105.055 60.6662C105.396 60.2711 105.846 60.0712 106.4 60.0712C106.677 60.0712 106.949 60.1393 107.213 60.2665ZM107.449 61.8197C107.421 61.5336 107.358 61.302 107.263 61.1294C107.081 60.8115 106.781 60.648 106.359 60.648C106.054 60.648 105.8 60.757 105.596 60.9795C105.391 61.2021 105.282 61.4791 105.269 61.8197H107.449Z" fill="black"/>
<path d="M109.116 64.8898C109.284 64.858 109.406 64.74 109.474 64.531C109.511 64.422 109.529 64.313 109.529 64.2086C109.529 64.1904 109.529 64.1768 109.529 64.1632C109.529 64.1495 109.529 64.1359 109.52 64.1178H109.116V63.3139H109.906V64.0587C109.906 64.3494 109.847 64.6082 109.729 64.8308C109.611 65.0533 109.406 65.1896 109.116 65.2395V64.8944V64.8898Z" fill="black"/>
<path d="M115.787 60.371C116.064 60.5889 116.232 60.9614 116.291 61.4882H115.646C115.605 61.2429 115.519 61.0431 115.378 60.8796C115.238 60.7207 115.015 60.6389 114.702 60.6389C114.279 60.6389 113.975 60.8433 113.793 61.2566C113.675 61.5245 113.616 61.856 113.616 62.2466C113.616 62.6372 113.698 62.9733 113.866 63.2458C114.034 63.5183 114.297 63.65 114.656 63.65C114.933 63.65 115.151 63.5682 115.31 63.4002C115.469 63.2321 115.583 63.0005 115.646 62.7099H116.291C116.219 63.2321 116.032 63.6182 115.737 63.8589C115.442 64.0996 115.065 64.2222 114.602 64.2222C114.084 64.2222 113.671 64.0315 113.366 63.6545C113.058 63.2776 112.903 62.8052 112.903 62.2375C112.903 61.5427 113.071 61.0022 113.407 60.6162C113.743 60.2302 114.175 60.0349 114.697 60.0349C115.142 60.0349 115.506 60.1439 115.783 60.3619L115.787 60.371Z" fill="black"/>
<path d="M119.82 60.5526C120.17 60.8933 120.342 61.3928 120.342 62.0514C120.342 62.7099 120.188 63.214 119.879 63.6318C119.57 64.0496 119.093 64.254 118.444 64.254C117.903 64.254 117.477 64.0723 117.159 63.7045C116.841 63.3366 116.682 62.8416 116.682 62.2239C116.682 61.5609 116.85 61.0295 117.186 60.6389C117.522 60.2484 117.972 60.0485 118.535 60.0485C119.039 60.0485 119.47 60.2166 119.82 60.5572V60.5526ZM119.407 63.1822C119.57 62.8507 119.647 62.4783 119.647 62.0695C119.647 61.7016 119.588 61.4019 119.47 61.1703C119.284 60.807 118.966 60.6253 118.512 60.6253C118.112 60.6253 117.817 60.7797 117.635 61.0885C117.454 61.3974 117.363 61.7698 117.363 62.2103C117.363 62.6508 117.454 62.9824 117.635 63.2594C117.817 63.541 118.108 63.6818 118.503 63.6818C118.939 63.6818 119.239 63.5137 119.398 63.1822H119.407Z" fill="black"/>
<path d="M121.16 60.1575H121.818V60.7207C121.977 60.5254 122.118 60.3846 122.245 60.2983C122.463 60.1484 122.713 60.0712 122.99 60.0712C123.303 60.0712 123.558 60.1484 123.748 60.3028C123.857 60.3937 123.957 60.5208 124.044 60.6934C124.194 60.48 124.366 60.3256 124.566 60.2211C124.766 60.1212 124.988 60.0667 125.238 60.0667C125.769 60.0667 126.133 60.2574 126.324 60.6435C126.428 60.8524 126.478 61.1294 126.478 61.4791V64.1132H125.788V61.3656C125.788 61.1022 125.72 60.9205 125.592 60.8251C125.461 60.7252 125.302 60.6753 125.111 60.6753C124.852 60.6753 124.625 60.7615 124.439 60.9387C124.253 61.1158 124.157 61.4064 124.157 61.8152V64.1132H123.481V61.5336C123.481 61.2657 123.449 61.0704 123.385 60.9477C123.285 60.7615 123.094 60.6707 122.822 60.6707C122.572 60.6707 122.341 60.7661 122.136 60.9614C121.932 61.1567 121.827 61.5064 121.827 62.015V64.1132H121.164V60.1575H121.16Z" fill="black"/>
<path d="M127.404 60.1757H128.054V60.6979C128.186 60.5163 128.331 60.38 128.49 60.2801C128.712 60.1302 128.98 60.0576 129.28 60.0576C129.73 60.0576 130.111 60.2302 130.425 60.5708C130.738 60.9159 130.897 61.4064 130.897 62.0422C130.897 62.9051 130.67 63.5183 130.22 63.8861C129.934 64.1177 129.598 64.2358 129.221 64.2358C128.921 64.2358 128.672 64.1722 128.467 64.0405C128.349 63.9679 128.217 63.8407 128.072 63.659V65.68H127.409V60.1666L127.404 60.1757ZM129.902 63.2776C130.107 63.0187 130.211 62.6281 130.211 62.1149C130.211 61.8015 130.166 61.529 130.075 61.302C129.902 60.866 129.584 60.648 129.126 60.648C128.667 60.648 128.349 60.8796 128.176 61.3383C128.086 61.5835 128.04 61.8969 128.04 62.2739C128.04 62.5781 128.086 62.837 128.176 63.055C128.349 63.4638 128.667 63.6681 129.126 63.6681C129.435 63.6681 129.693 63.5364 129.902 63.2776Z" fill="black"/>
<path d="M133.781 61.7198C133.935 61.7016 134.035 61.6381 134.085 61.5291C134.112 61.47 134.13 61.3837 134.13 61.2747C134.13 61.0477 134.049 60.8842 133.89 60.7797C133.731 60.6752 133.499 60.6253 133.199 60.6253C132.854 60.6253 132.609 60.7207 132.464 60.9069C132.382 61.0113 132.332 61.1657 132.305 61.3701H131.683C131.696 60.8796 131.851 60.5435 132.155 60.3483C132.459 60.1575 132.809 60.0621 133.213 60.0621C133.676 60.0621 134.053 60.1484 134.344 60.3301C134.63 60.5072 134.775 60.7842 134.775 61.1567V63.4365C134.775 63.5046 134.789 63.5591 134.816 63.6046C134.843 63.65 134.903 63.6681 134.993 63.6681C135.021 63.6681 135.057 63.6681 135.093 63.6636C135.13 63.659 135.17 63.6545 135.211 63.6454V64.1359C135.107 64.1677 135.03 64.1859 134.975 64.1904C134.921 64.1995 134.848 64.1995 134.753 64.1995C134.526 64.1995 134.358 64.1178 134.253 63.9543C134.199 63.868 134.162 63.7453 134.14 63.5909C134.003 63.768 133.808 63.9225 133.558 64.0542C133.308 64.1859 133.027 64.2495 132.723 64.2495C132.355 64.2495 132.055 64.1405 131.823 63.9179C131.592 63.6954 131.474 63.4183 131.474 63.0823C131.474 62.7144 131.587 62.4328 131.819 62.2285C132.05 62.0241 132.35 61.9015 132.718 61.856L133.776 61.7243L133.781 61.7198ZM132.382 63.5137C132.523 63.6227 132.686 63.6772 132.882 63.6772C133.118 63.6772 133.34 63.6227 133.563 63.5137C133.931 63.3366 134.117 63.0414 134.117 62.6327V62.0968C134.035 62.1467 133.931 62.1921 133.803 62.2285C133.676 62.2648 133.549 62.2875 133.427 62.3011L133.027 62.3511C132.786 62.3829 132.604 62.4328 132.482 62.5009C132.277 62.6145 132.173 62.8007 132.173 63.055C132.173 63.2458 132.241 63.3956 132.382 63.5092V63.5137Z" fill="black"/>
<path d="M135.883 60.1575H136.515V60.8388C136.565 60.707 136.692 60.5435 136.896 60.3528C137.096 60.1621 137.332 60.0667 137.596 60.0667C137.609 60.0667 137.627 60.0667 137.659 60.0667C137.691 60.0667 137.741 60.0758 137.809 60.0803V60.7797C137.768 60.7706 137.732 60.7661 137.7 60.7661C137.668 60.7661 137.632 60.7661 137.591 60.7661C137.255 60.7661 137.001 60.8751 136.819 61.0885C136.637 61.302 136.551 61.5518 136.551 61.8333V64.1087H135.888V60.153L135.883 60.1575Z" fill="black"/>
<path d="M138.518 59.0539H139.19V60.1575H139.821V60.6979H139.19V63.2775C139.19 63.4138 139.235 63.5092 139.331 63.5546C139.38 63.5818 139.467 63.5955 139.589 63.5955C139.621 63.5955 139.658 63.5955 139.694 63.5955C139.73 63.5955 139.776 63.5909 139.821 63.5818V64.1087C139.744 64.1314 139.667 64.145 139.585 64.1586C139.503 64.1677 139.412 64.1722 139.317 64.1722C139.008 64.1722 138.795 64.095 138.686 63.9361C138.577 63.7771 138.518 63.5727 138.518 63.3184V60.7025H137.982V60.162H138.518V59.0584V59.0539Z" fill="black"/>
<path d="M142.928 60.2665C143.191 60.3982 143.391 60.5708 143.527 60.7797C143.659 60.9795 143.745 61.2112 143.79 61.4791C143.831 61.6608 143.849 61.9514 143.849 62.3511H140.975C140.988 62.7553 141.079 63.0777 141.256 63.3184C141.433 63.5637 141.706 63.6818 142.074 63.6818C142.419 63.6818 142.691 63.5682 142.896 63.3366C143.009 63.2049 143.091 63.0505 143.141 62.8734H143.795C143.777 63.0187 143.722 63.1822 143.622 63.3593C143.527 63.5364 143.418 63.6818 143.295 63.7953C143.096 63.9906 142.846 64.1268 142.551 64.195C142.392 64.2358 142.214 64.254 142.01 64.254C141.52 64.254 141.106 64.0769 140.766 63.7181C140.425 63.3593 140.257 62.8597 140.257 62.2148C140.257 61.5699 140.43 61.0658 140.77 60.6662C141.111 60.2711 141.561 60.0712 142.115 60.0712C142.392 60.0712 142.664 60.1393 142.928 60.2665ZM143.164 61.8197C143.136 61.5336 143.073 61.302 142.977 61.1294C142.796 60.8115 142.496 60.648 142.074 60.648C141.769 60.648 141.515 60.757 141.311 60.9795C141.106 61.2021 140.997 61.4791 140.984 61.8197H143.164Z" fill="black"/>
<path d="M149.263 60.1575H149.999C149.903 60.4119 149.699 60.9886 149.376 61.8924C149.136 62.5736 148.931 63.1277 148.772 63.5546C148.391 64.5628 148.118 65.176 147.959 65.3985C147.8 65.621 147.533 65.73 147.147 65.73C147.051 65.73 146.983 65.73 146.933 65.7209C146.883 65.7119 146.82 65.6982 146.747 65.6801V65.076C146.86 65.1078 146.947 65.126 146.997 65.1351C147.047 65.1442 147.092 65.1442 147.133 65.1442C147.256 65.1442 147.346 65.126 147.405 65.0851C147.464 65.0442 147.51 64.9943 147.551 64.9352C147.564 64.9171 147.605 64.8126 147.682 64.631C147.76 64.4493 147.814 64.3131 147.85 64.2268L146.388 60.1575H147.142L148.2 63.3775L149.267 60.1575H149.263Z" fill="black"/>
<path d="M152.996 60.1575L154.05 63.3775L155.149 60.1575H155.875L154.386 64.1132H153.677L152.219 60.1575H152.992H152.996Z" fill="black"/>
<path d="M156.452 58.6906H157.129V59.4445H156.452V58.6906ZM156.452 60.1757H157.129V64.1087H156.452V60.1757Z" fill="black"/>
<path d="M158.455 60.1575L159.509 63.3775L160.608 60.1575H161.334L159.845 64.1132H159.136L157.678 60.1575H158.451H158.455Z" fill="black"/>
<path d="M164.354 60.2665C164.618 60.3982 164.818 60.5708 164.954 60.7797C165.086 60.9795 165.172 61.2112 165.217 61.4791C165.258 61.6608 165.276 61.9514 165.276 62.3511H162.402C162.415 62.7553 162.506 63.0777 162.683 63.3184C162.86 63.5637 163.133 63.6818 163.501 63.6818C163.846 63.6818 164.118 63.5682 164.323 63.3366C164.436 63.2049 164.518 63.0505 164.568 62.8734H165.222C165.204 63.0187 165.149 63.1822 165.049 63.3593C164.954 63.5364 164.845 63.6818 164.722 63.7953C164.522 63.9906 164.273 64.1268 163.977 64.195C163.818 64.2358 163.641 64.254 163.437 64.254C162.947 64.254 162.533 64.0769 162.193 63.7181C161.852 63.3593 161.684 62.8597 161.684 62.2148C161.684 61.5699 161.857 61.0658 162.197 60.6662C162.538 60.2711 162.987 60.0712 163.541 60.0712C163.818 60.0712 164.091 60.1393 164.354 60.2665ZM164.591 61.8197C164.563 61.5336 164.5 61.302 164.404 61.1294C164.223 60.8115 163.923 60.648 163.501 60.648C163.196 60.648 162.942 60.757 162.738 60.9795C162.533 61.2021 162.424 61.4791 162.411 61.8197H164.591Z" fill="black"/>
<path d="M170.658 60.2665C170.922 60.3982 171.121 60.5708 171.258 60.7797C171.389 60.9795 171.476 61.2112 171.521 61.4791C171.562 61.6608 171.58 61.9514 171.58 62.3511H168.705C168.719 62.7553 168.81 63.0777 168.987 63.3184C169.164 63.5637 169.437 63.6818 169.804 63.6818C170.15 63.6818 170.422 63.5682 170.626 63.3366C170.74 63.2049 170.822 63.0505 170.872 62.8734H171.526C171.507 63.0187 171.453 63.1822 171.353 63.3593C171.258 63.5364 171.149 63.6818 171.026 63.7953C170.826 63.9906 170.576 64.1268 170.281 64.195C170.122 64.2358 169.945 64.254 169.741 64.254C169.25 64.254 168.837 64.0769 168.496 63.7181C168.156 63.3593 167.988 62.8597 167.988 62.2148C167.988 61.5699 168.16 61.0658 168.501 60.6662C168.842 60.2711 169.291 60.0712 169.845 60.0712C170.122 60.0712 170.395 60.1393 170.658 60.2665ZM170.894 61.8197C170.867 61.5336 170.804 61.302 170.708 61.1294C170.527 60.8115 170.227 60.648 169.804 60.648C169.5 60.648 169.246 60.757 169.041 60.9795C168.837 61.2021 168.728 61.4791 168.714 61.8197H170.894Z" fill="black"/>
<path d="M172.42 60.1575H173.052V60.7207C173.238 60.489 173.438 60.321 173.647 60.2211C173.856 60.1212 174.087 60.0712 174.346 60.0712C174.909 60.0712 175.286 60.2665 175.481 60.6571C175.59 60.8705 175.645 61.1794 175.645 61.5745V64.1087H174.968V61.6154C174.968 61.3747 174.932 61.1794 174.859 61.034C174.741 60.7888 174.528 60.6662 174.219 60.6662C174.06 60.6662 173.933 60.6843 173.833 60.7161C173.651 60.7706 173.492 60.8796 173.351 61.0431C173.242 61.1748 173.17 61.3065 173.133 61.4473C173.102 61.5881 173.083 61.7834 173.083 62.0423V64.1132H172.42V60.1575Z" fill="black"/>
<path d="M178.67 60.1757H179.319V60.6979C179.451 60.5163 179.596 60.38 179.755 60.2801C179.978 60.1302 180.245 60.0576 180.545 60.0576C180.995 60.0576 181.376 60.2302 181.69 60.5708C182.003 60.9159 182.162 61.4064 182.162 62.0422C182.162 62.9051 181.935 63.5183 181.485 63.8861C181.199 64.1177 180.863 64.2358 180.486 64.2358C180.186 64.2358 179.937 64.1722 179.732 64.0405C179.614 63.9679 179.482 63.8407 179.337 63.659V65.68H178.674V60.1666L178.67 60.1757ZM181.172 63.2776C181.376 63.0187 181.481 62.6281 181.481 62.1149C181.481 61.8015 181.435 61.529 181.345 61.302C181.172 60.866 180.854 60.648 180.395 60.648C179.937 60.648 179.619 60.8796 179.446 61.3383C179.355 61.5835 179.31 61.8969 179.31 62.2739C179.31 62.5781 179.355 62.837 179.446 63.055C179.619 63.4638 179.937 63.6681 180.395 63.6681C180.704 63.6681 180.963 63.5364 181.172 63.2776Z" fill="black"/>
<path d="M182.948 58.6906H183.611V64.1132H182.948V58.6906Z" fill="black"/>
<path d="M187.053 60.2665C187.317 60.3982 187.516 60.5708 187.653 60.7797C187.784 60.9795 187.871 61.2112 187.916 61.4791C187.957 61.6608 187.975 61.9514 187.975 62.3511H185.1C185.114 62.7553 185.205 63.0777 185.382 63.3184C185.559 63.5637 185.831 63.6818 186.199 63.6818C186.544 63.6818 186.817 63.5682 187.021 63.3366C187.135 63.2049 187.217 63.0505 187.267 62.8734H187.921C187.902 63.0187 187.848 63.1822 187.748 63.3593C187.653 63.5364 187.544 63.6818 187.421 63.7953C187.221 63.9906 186.971 64.1268 186.676 64.195C186.517 64.2358 186.34 64.254 186.136 64.254C185.645 64.254 185.232 64.0769 184.891 63.7181C184.551 63.3593 184.383 62.8597 184.383 62.2148C184.383 61.5699 184.555 61.0658 184.896 60.6662C185.237 60.2711 185.686 60.0712 186.24 60.0712C186.517 60.0712 186.79 60.1393 187.053 60.2665ZM187.289 61.8197C187.262 61.5336 187.198 61.302 187.103 61.1294C186.921 60.8115 186.622 60.648 186.199 60.648C185.895 60.648 185.641 60.757 185.436 60.9795C185.232 61.2021 185.123 61.4791 185.109 61.8197H187.289Z" fill="black"/>
<path d="M188.815 60.1575H189.447V60.7207C189.633 60.489 189.833 60.321 190.042 60.2211C190.25 60.1212 190.482 60.0712 190.741 60.0712C191.304 60.0712 191.681 60.2665 191.876 60.6571C191.985 60.8705 192.04 61.1794 192.04 61.5745V64.1087H191.363V61.6154C191.363 61.3747 191.327 61.1794 191.254 61.034C191.136 60.7888 190.923 60.6662 190.614 60.6662C190.455 60.6662 190.328 60.6843 190.228 60.7161C190.046 60.7706 189.887 60.8796 189.746 61.0431C189.637 61.1748 189.565 61.3065 189.528 61.4473C189.497 61.5881 189.478 61.7834 189.478 62.0423V64.1132H188.815V60.1575Z" fill="black"/>
<path d="M193.016 58.6906H193.693V59.4445H193.016V58.6906ZM193.016 60.1757H193.693V64.1087H193.016V60.1757Z" fill="black"/>
<path d="M194.833 59.0539H195.505V60.1575H196.136V60.6979H195.505V63.2775C195.505 63.4138 195.551 63.5092 195.646 63.5546C195.696 63.5818 195.782 63.5955 195.905 63.5955C195.937 63.5955 195.973 63.5955 196.009 63.5955C196.046 63.5955 196.091 63.5909 196.136 63.5818V64.1087C196.059 64.1314 195.982 64.145 195.9 64.1586C195.819 64.1677 195.728 64.1722 195.632 64.1722C195.324 64.1722 195.11 64.095 195.001 63.9361C194.892 63.7771 194.833 63.5727 194.833 63.3184V60.7025H194.297V60.162H194.833V59.0584V59.0539Z" fill="black"/>
<path d="M197.463 60.1575V62.7826C197.463 62.9824 197.494 63.1504 197.558 63.2776C197.671 63.5137 197.889 63.6318 198.203 63.6318C198.652 63.6318 198.961 63.4229 199.125 63.0096C199.211 62.7871 199.256 62.4828 199.256 62.0968V60.153H199.92V64.1087H199.293L199.302 63.5274C199.216 63.6772 199.111 63.8044 198.989 63.9089C198.739 64.1178 198.439 64.2177 198.085 64.2177C197.531 64.2177 197.154 64.0315 196.954 63.6545C196.845 63.4547 196.79 63.1822 196.79 62.8461V60.1575H197.472H197.463Z" fill="black"/>
<path d="M203.176 60.2801C203.294 60.3528 203.426 60.4845 203.575 60.6661V58.6678H204.216V64.1086H203.616V63.5591C203.462 63.8044 203.28 63.9769 203.067 64.0859C202.858 64.1949 202.613 64.2494 202.34 64.2494C201.9 64.2494 201.523 64.0632 201.2 63.6954C200.878 63.3229 200.719 62.8325 200.719 62.2148C200.719 61.638 200.864 61.1385 201.159 60.7161C201.45 60.2937 201.872 60.0848 202.417 60.0848C202.717 60.0848 202.971 60.1484 203.176 60.2756V60.2801ZM201.691 63.2457C201.868 63.5319 202.154 63.6726 202.549 63.6726C202.853 63.6726 203.108 63.5409 203.303 63.2775C203.498 63.0141 203.598 62.6326 203.598 62.1376C203.598 61.6426 203.498 61.2702 203.294 61.0295C203.089 60.7888 202.84 60.6707 202.54 60.6707C202.208 60.6707 201.936 60.7978 201.732 61.0567C201.523 61.311 201.423 61.688 201.423 62.1876C201.423 62.6099 201.514 62.9642 201.691 63.2503V63.2457Z" fill="black"/>
</svg>
